STARTFONT 2.3
FONT -FontForge-Monofett-Book-R-Normal--11-110-72-72-P-57-ISO10646-1
SIZE 11 72 72  4
FONTBOUNDINGBOX 8 13 0 -2
COMMENT "Generated by fontforge, http://fontforge.sourceforge.net"
COMMENT "Copyright (c) 2011 by vernon adams. All rights reserved."
STARTPROPERTIES 41
FOUNDRY "FontForge"
FAMILY_NAME "Monofett"
WEIGHT_NAME "Book"
SLANT "R"
SETWIDTH_NAME "Normal"
ADD_STYLE_NAME ""
PIXEL_SIZE 11
POINT_SIZE 110
RESOLUTION_X 72
RESOLUTION_Y 72
SPACING "P"
AVERAGE_WIDTH 57
CHARSET_REGISTRY "ISO10646"
CHARSET_ENCODING "1"
FONTNAME_REGISTRY ""
CHARSET_COLLECTIONS "ISO8859-2 ISO8859-9 ISO8859-4 ISO10646-1"
BITS_PER_PIXEL 4
FONT_NAME "Monofett"
FACE_NAME "Monofett"
COPYRIGHT "Copyright (c) 2011 by vernon adams. All rights reserved."
FONT_VERSION "1.000"
FONT_ASCENT 9
FONT_DESCENT 2
UNDERLINE_POSITION -1
UNDERLINE_THICKNESS 1
X_HEIGHT 7
CAP_HEIGHT 7
RAW_ASCENT 799
RAW_DESCENT 200
NORM_SPACE 2
RELATIVE_WEIGHT 40
RELATIVE_SETWIDTH 50
SUPERSCRIPT_X 0
SUPERSCRIPT_Y 5
SUPERSCRIPT_SIZE 7
SUBSCRIPT_X 0
SUBSCRIPT_Y 1
SUBSCRIPT_SIZE 7
FIGURE_WIDTH 6
AVG_LOWERCASE_WIDTH 60
AVG_UPPERCASE_WIDTH 60
ENDPROPERTIES
CHARS 409
STARTCHAR uni000D
ENCODING 13
SWIDTH 144 0
DWIDTH 2 0
BBX 1 1 0 0
BITMAP
00
ENDCHAR
STARTCHAR space
ENCODING 32
SWIDTH 144 0
DWIDTH 2 0
BBX 1 1 0 0
BITMAP
00
ENDCHAR
STARTCHAR exclam
ENCODING 33
SWIDTH 424 0
DWIDTH 5 0
BBX 5 8 0 0
BITMAP
035100
8F6E30
EF6FA0
FF8FA0
FFCFA0
FFAFA0
DFFF80
4DEB10
ENDCHAR
STARTCHAR quotedbl
ENCODING 34
SWIDTH 424 0
DWIDTH 5 0
BBX 5 8 0 0
BITMAP
035100
8C5D30
EDAEA0
FFFFA0
FFFFA0
FFFFA0
DFFF80
4DEB10
ENDCHAR
STARTCHAR numbersign
ENCODING 35
SWIDTH 482 0
DWIDTH 5 0
BBX 6 8 0 0
BITMAP
035400
8FCCC0
EC33F4
FD78F5
F836F5
FDCDF5
DFFFF3
4DFE70
ENDCHAR
STARTCHAR dollar
ENCODING 36
SWIDTH 578 0
DWIDTH 6 0
BBX 7 8 0 0
BITMAP
03554000
8F96CC10
EB97AF50
FD649F60
FDD86F60
FE74BF60
DFFEFF40
4DFFE800
ENDCHAR
STARTCHAR percent
ENCODING 37
SWIDTH 578 0
DWIDTH 6 0
BBX 7 8 0 0
BITMAP
03554000
88AAFC10
E566FF50
FDC79D60
FF996760
FFDFAE60
DFFFFF40
4DFFE800
ENDCHAR
STARTCHAR ampersand
ENCODING 38
SWIDTH 578 0
DWIDTH 6 0
BBX 7 8 0 0
BITMAP
03554000
8F67CC10
EF7FBF50
FF663E60
FF6F6F60
FF97AF60
DFFFFF40
4DFFE800
ENDCHAR
STARTCHAR quotesingle
ENCODING 39
SWIDTH 424 0
DWIDTH 5 0
BBX 5 8 0 0
BITMAP
035100
8F8E30
EFBFA0
FFFFA0
FFFFA0
FFFFA0
DFFF80
4DEB10
ENDCHAR
STARTCHAR parenleft
ENCODING 40
SWIDTH 483 0
DWIDTH 5 0
BBX 6 8 0 0
BITMAP
035400
8E5BC1
ECAFF4
FCAFF5
FCAFF5
FC6DF5
DFCDF3
4DFE70
ENDCHAR
STARTCHAR parenright
ENCODING 41
SWIDTH 483 0
DWIDTH 5 0
BBX 6 8 0 0
BITMAP
035400
8E6AC1
EFF7F4
FFF7F5
FFF7F5
FFA7F5
DFBEF3
4DFE70
ENDCHAR
STARTCHAR asterisk
ENCODING 42
SWIDTH 428 0
DWIDTH 5 0
BBX 5 8 0 0
BITMAP
035200
8D6B40
E806A0
FD9CB0
FFFFB0
FFFFB0
DFFF90
4DEB10
ENDCHAR
STARTCHAR plus
ENCODING 43
SWIDTH 428 0
DWIDTH 5 0
BBX 5 8 0 0
BITMAP
035200
8F7F40
E739A0
FF8FB0
FFFFB0
FFFFB0
DFFF90
4DEB10
ENDCHAR
STARTCHAR comma
ENCODING 44
SWIDTH 428 0
DWIDTH 5 0
BBX 5 8 0 0
BITMAP
035200
8FFF40
EFFFA0
FFFFB0
FFEFB0
FF5FB0
DFEF90
4DEB10
ENDCHAR
STARTCHAR hyphen
ENCODING 45
SWIDTH 428 0
DWIDTH 5 0
BBX 5 8 0 0
BITMAP
035200
8FFF40
EA7CA0
FEEFB0
FFFFB0
FFFFB0
DFFF90
4DEB10
ENDCHAR
STARTCHAR period
ENCODING 46
SWIDTH 428 0
DWIDTH 5 0
BBX 5 8 0 0
BITMAP
035200
8FFF40
EFFFA0
FFFFB0
FFEFB0
FF9FB0
DFFF90
4DEB10
ENDCHAR
STARTCHAR slash
ENCODING 47
SWIDTH 428 0
DWIDTH 5 0
BBX 5 8 0 0
BITMAP
035200
8F9F40
EF6FA0
FF6FB0
FD8FB0
FCBFB0
DFFF90
4DEB10
ENDCHAR
STARTCHAR zero
ENCODING 48
SWIDTH 578 0
DWIDTH 6 0
BBX 7 8 0 0
BITMAP
03554000
8D676C10
EBBF8E50
FBBF8E60
FBAF7E60
FE778F60
DFFFFF40
4DFFE800
ENDCHAR
STARTCHAR one
ENCODING 49
SWIDTH 578 0
DWIDTH 6 0
BBX 7 8 0 0
BITMAP
03554000
8F97FC10
EFF6FF50
FFF6FF60
FFF6FF60
FFFAFF60
DFFFFF40
4DFFE800
ENDCHAR
STARTCHAR two
ENCODING 50
SWIDTH 578 0
DWIDTH 6 0
BBX 7 8 0 0
BITMAP
03554000
8D576C10
EEEF6F50
FD678F60
FBBFFF60
FE779F60
DFFFFF40
4DFFE800
ENDCHAR
STARTCHAR three
ENCODING 51
SWIDTH 578 0
DWIDTH 6 0
BBX 7 8 0 0
BITMAP
03554000
8B677C10
EEFF6F50
FFA74F60
FCEF6F60
FD779F60
DFFFFF40
4DFFE800
ENDCHAR
STARTCHAR four
ENCODING 52
SWIDTH 578 0
DWIDTH 6 0
BBX 7 8 0 0
BITMAP
03554000
8E8DAC10
EE7C9F50
FE7C9F60
FF964D60
FFFDCF60
DFFFFF40
4DFFE800
ENDCHAR
STARTCHAR five
ENCODING 53
SWIDTH 578 0
DWIDTH 6 0
BBX 7 8 0 0
BITMAP
03554000
8D578C10
EC8DEF50
FD894F60
FEDF6F60
FF778F60
DFFFFF40
4DFFE800
ENDCHAR
STARTCHAR six
ENCODING 54
SWIDTH 578 0
DWIDTH 6 0
BBX 7 8 0 0
BITMAP
03554000
8E568C10
EC8DEF50
FC595D60
FC9F9D60
FF778F60
DFFFFF40
4DFFE800
ENDCHAR
STARTCHAR seven
ENCODING 55
SWIDTH 578 0
DWIDTH 6 0
BBX 7 8 0 0
BITMAP
03554000
8F968C10
EFF9BF50
FFF5FF60
FFD7FF60
FFCDFF60
DFFFFF40
4DFFE800
ENDCHAR
STARTCHAR eight
ENCODING 56
SWIDTH 578 0
DWIDTH 6 0
BBX 7 8 0 0
BITMAP
03554000
8D676C10
EABF7E50
FB463F60
FABF7E60
FE778F60
DFFFFF40
4DFFE800
ENDCHAR
STARTCHAR nine
ENCODING 57
SWIDTH 578 0
DWIDTH 6 0
BBX 7 8 0 0
BITMAP
03554000
8C676C10
E9CF6F50
FC663F60
FFEE6F60
FF779F60
DFFFFF40
4DFFE800
ENDCHAR
STARTCHAR colon
ENCODING 58
SWIDTH 428 0
DWIDTH 5 0
BBX 5 8 0 0
BITMAP
035200
8FFF40
EFFFA0
FF8FB0
FFEFB0
FF9FB0
DFFF90
4DEB10
ENDCHAR
STARTCHAR semicolon
ENCODING 59
SWIDTH 428 0
DWIDTH 5 0
BBX 5 8 0 0
BITMAP
035200
8FFF40
EFFFA0
FF8FB0
FFDFB0
FF5FB0
DFEF90
4DEB10
ENDCHAR
STARTCHAR less
ENCODING 60
SWIDTH 482 0
DWIDTH 5 0
BBX 6 9 0 0
BITMAP
035400
7FFFB0
EFFDF4
FF9EF5
FADFF5
FE9FF5
EFDCF4
9FFFD1
047510
ENDCHAR
STARTCHAR equal
ENCODING 61
SWIDTH 482 0
DWIDTH 5 0
BBX 6 9 0 0
BITMAP
025400
7FFFB0
EFFFF4
FECDF5
FEBBF5
FECCF5
EFFFF4
9FFFD1
047510
ENDCHAR
STARTCHAR greater
ENCODING 62
SWIDTH 482 0
DWIDTH 5 0
BBX 6 9 0 0
BITMAP
025400
7FFFB0
EFEFF4
FF9EF5
FFF8F5
FFCCF5
EFBFF4
9FFFD1
047510
ENDCHAR
STARTCHAR question
ENCODING 63
SWIDTH 578 0
DWIDTH 6 0
BBX 7 8 0 0
BITMAP
03554000
8F788C10
EFEF8F50
FFF88F60
FFFAFF60
FFFBFF60
DFFFFF40
4DFFE800
ENDCHAR
STARTCHAR at
ENCODING 64
SWIDTH 578 0
DWIDTH 6 0
BBX 7 8 0 0
BITMAP
03554000
89787B10
E8B8B850
F8A88860
F8798860
F7ADBD60
DFDEFF40
4DFFE800
ENDCHAR
STARTCHAR A
ENCODING 65
SWIDTH 578 0
DWIDTH 6 0
BBX 7 8 0 0
BITMAP
03554000
8F668C10
EE7F6F50
FC474F60
FAAF6F60
FCDFBE60
DFFFFF40
4DFFE800
ENDCHAR
STARTCHAR B
ENCODING 66
SWIDTH 578 0
DWIDTH 6 0
BBX 7 8 0 0
BITMAP
03554000
8A677C10
EACF6F50
FA576F60
FACF6F60
FC77AF60
DFFFFF40
4DFFE800
ENDCHAR
STARTCHAR C
ENCODING 67
SWIDTH 578 0
DWIDTH 6 0
BBX 7 8 0 0
BITMAP
03554000
8D57BC10
EABFFF50
FABFFF60
FABFFF60
FE77BF60
DFFFFF40
4DFFE800
ENDCHAR
STARTCHAR D
ENCODING 68
SWIDTH 578 0
DWIDTH 6 0
BBX 7 8 0 0
BITMAP
03554000
8C575C10
ECAF8D50
FCAF8D60
FCAF8D60
FD778F60
DFFFFF40
4DFFE800
ENDCHAR
STARTCHAR E
ENCODING 69
SWIDTH 578 0
DWIDTH 6 0
BBX 7 8 0 0
BITMAP
03554000
8F578C10
EF7FFF50
FF46BF60
FF7FFF60
FF878F60
DFFFFF40
4DFFE800
ENDCHAR
STARTCHAR F
ENCODING 70
SWIDTH 578 0
DWIDTH 6 0
BBX 7 8 0 0
BITMAP
03554000
8F578C10
EF6FFF50
FF47BF60
FF6FFF60
FFAFFF60
DFFFFF40
4DFFE800
ENDCHAR
STARTCHAR G
ENCODING 71
SWIDTH 578 0
DWIDTH 6 0
BBX 7 8 0 0
BITMAP
03554000
8E578C10
ED9FFF50
FD9B6E60
FD8F8E60
FF878F60
DFFFFF40
4DFFE800
ENDCHAR
STARTCHAR H
ENCODING 72
SWIDTH 578 0
DWIDTH 6 0
BBX 7 8 0 0
BITMAP
03554000
8CBF9B10
ECAF8D50
FC474D60
FCAF8D60
FDCFBE60
DFFFFF40
4DFFE800
ENDCHAR
STARTCHAR I
ENCODING 73
SWIDTH 578 0
DWIDTH 6 0
BBX 7 8 0 0
BITMAP
03554000
8E747C10
EFF6FF50
FFF6FF60
FFF6FF60
FE777F60
DFFFFF40
4DFFE800
ENDCHAR
STARTCHAR J
ENCODING 74
SWIDTH 578 0
DWIDTH 6 0
BBX 7 8 0 0
BITMAP
03554000
8FFBCC10
EFFACF50
FFFACF60
FFF9CF60
FFA7EF60
DFFFFF40
4DFFE800
ENDCHAR
STARTCHAR K
ENCODING 75
SWIDTH 578 0
DWIDTH 6 0
BBX 7 8 0 0
BITMAP
03554000
8F7F7A10
EF67BF50
FF45FF60
FF6C6F60
FFAFBE60
DFFFFF40
4DFFE800
ENDCHAR
STARTCHAR L
ENCODING 76
SWIDTH 578 0
DWIDTH 6 0
BBX 7 8 0 0
BITMAP
03554000
8F7FFC10
EF6FFF50
FF6FFF60
FF6FFF60
FFA7AF60
DFFFFF40
4DFFE800
ENDCHAR
STARTCHAR M
ENCODING 77
SWIDTH 578 0
DWIDTH 6 0
BBX 7 8 0 0
BITMAP
03554000
88656A10
E6F7BA50
F6F7BA60
F6FFBA60
FAFFDC60
DFFFFF40
4DFFE800
ENDCHAR
STARTCHAR N
ENCODING 78
SWIDTH 578 0
DWIDTH 6 0
BBX 7 8 0 0
BITMAP
03554000
8C676C10
EBBF7F50
FBBF7F60
FBBF7F60
FDDFAF60
DFFFFF40
4DFFE800
ENDCHAR
STARTCHAR O
ENCODING 79
SWIDTH 578 0
DWIDTH 6 0
BBX 7 8 0 0
BITMAP
03554000
8D575C10
EBAF8D50
FBAF8D60
FBAF8E60
FE778F60
DFFFFF40
4DFFE800
ENDCHAR
STARTCHAR P
ENCODING 80
SWIDTH 578 0
DWIDTH 6 0
BBX 7 8 0 0
BITMAP
03554000
8F476C10
EF7F6F50
FF365F60
FF7FFF60
FFAFFF60
DFFFFF40
4DFFE800
ENDCHAR
STARTCHAR Q
ENCODING 81
SWIDTH 578 0
DWIDTH 6 0
BBX 7 8 0 0
BITMAP
03554000
8D575C10
ECAF8D50
FCAF8D60
FCAA8D60
FE755F60
DFFFDF40
4DFFE800
ENDCHAR
STARTCHAR R
ENCODING 82
SWIDTH 578 0
DWIDTH 6 0
BBX 7 8 0 0
BITMAP
03554000
8D568C10
ED9F6F50
FD468F60
FD9F7F60
FEBFAF60
DFFFFF40
4DFFE800
ENDCHAR
STARTCHAR S
ENCODING 83
SWIDTH 578 0
DWIDTH 6 0
BBX 7 8 0 0
BITMAP
03554000
8E578C10
ED8FFF50
FF775F60
FFFF6F60
FF879F60
DFFFFF40
4DFFE800
ENDCHAR
STARTCHAR T
ENCODING 84
SWIDTH 578 0
DWIDTH 6 0
BBX 7 8 0 0
BITMAP
03554000
8E747C10
EFF6FF50
FFF6FF60
FFF6FF60
FFFAFF60
DFFFFF40
4DFFE800
ENDCHAR
STARTCHAR U
ENCODING 85
SWIDTH 578 0
DWIDTH 6 0
BBX 7 8 0 0
BITMAP
03554000
8BBF9B10
EBBF8E50
FBBF8E60
FBAF7E60
FE778F60
DFFFFF40
4DFFE800
ENDCHAR
STARTCHAR V
ENCODING 86
SWIDTH 578 0
DWIDTH 6 0
BBX 7 8 0 0
BITMAP
03554000
8CAF7C10
EE6F5F50
FF6D7F60
FF87BF60
FFE7FF60
DFFFFF40
4DFFE800
ENDCHAR
STARTCHAR W
ENCODING 87
SWIDTH 578 0
DWIDTH 6 0
BBX 7 8 0 0
BITMAP
03554000
87F8C710
E6D3BA50
F6A49C60
F8686D60
FD8D8F60
DFFFFF40
4DFFE800
ENDCHAR
STARTCHAR X
ENCODING 88
SWIDTH 578 0
DWIDTH 6 0
BBX 7 8 0 0
BITMAP
03554000
8E8F8C10
EF7A8F50
FFC1EF60
FF6D6F60
FEBFBF60
DFFFFF40
4DFFE800
ENDCHAR
STARTCHAR Y
ENCODING 89
SWIDTH 578 0
DWIDTH 6 0
BBX 7 8 0 0
BITMAP
03554000
8E7F6C10
EF6C8F50
FFC2EF60
FFF6FF60
FFFAFF60
DFFFFF40
4DFFE800
ENDCHAR
STARTCHAR Z
ENCODING 90
SWIDTH 578 0
DWIDTH 6 0
BBX 7 8 0 0
BITMAP
03554000
8F768C10
EFF7DF50
FFD7FF60
FF6EFF60
FF879F60
DFFFFF40
4DFFE800
ENDCHAR
STARTCHAR bracketleft
ENCODING 91
SWIDTH 484 0
DWIDTH 5 0
BBX 6 8 0 0
BITMAP
035400
8F5EC1
EF6FF5
FF6FF5
FF6FF5
FF5EF5
DFEFF3
4DFE70
ENDCHAR
STARTCHAR backslash
ENCODING 92
SWIDTH 516 0
DWIDTH 6 0
BBX 6 8 0 0
BITMAP
035510
8F7FE4
EF8EFA
FFABFB
FFD9FB
FFFAFB
DFFFF9
4DFEB1
ENDCHAR
STARTCHAR bracketright
ENCODING 93
SWIDTH 484 0
DWIDTH 5 0
BBX 6 8 0 0
BITMAP
035400
8F5EC1
EF8EF5
FF8EF5
FF8EF5
FF5EF5
DFEFF3
4DFE70
ENDCHAR
STARTCHAR asciicircum
ENCODING 94
SWIDTH 355 0
DWIDTH 4 0
BBX 4 5 0 2
BITMAP
0760
6DD4
CBBB
EEED
3452
ENDCHAR
STARTCHAR underscore
ENCODING 95
SWIDTH 428 0
DWIDTH 5 0
BBX 5 8 0 0
BITMAP
035200
8FFF40
EFFFA0
FFFFB0
FFFFB0
F98BB0
DDDE90
4DEB10
ENDCHAR
STARTCHAR grave
ENCODING 96
SWIDTH 308 0
DWIDTH 3 0
BBX 4 4 0 0
BITMAP
6A60
E8F1
8BC5
1CD3
ENDCHAR
STARTCHAR a
ENCODING 97
SWIDTH 578 0
DWIDTH 6 0
BBX 7 8 0 0
BITMAP
03554000
8F678C10
EFFF7F50
FC666F60
F9CF7F60
FD77AF60
DFFFFF40
4DFFE800
ENDCHAR
STARTCHAR b
ENCODING 98
SWIDTH 578 0
DWIDTH 6 0
BBX 7 8 0 0
BITMAP
03554000
8A677C10
EACF6F50
FA576F60
FACF6F60
FC77AF60
DFFFFF40
4DFFE800
ENDCHAR
STARTCHAR c
ENCODING 99
SWIDTH 578 0
DWIDTH 6 0
BBX 7 8 0 0
BITMAP
03554000
8D57BC10
EABFFF50
FABFFF60
FABFFF60
FE77BF60
DFFFFF40
4DFFE800
ENDCHAR
STARTCHAR d
ENCODING 100
SWIDTH 578 0
DWIDTH 6 0
BBX 7 8 0 0
BITMAP
03554000
8C575C10
ECAF8D50
FCAF8D60
FCAF8D60
FD778F60
DFFFFF40
4DFFE800
ENDCHAR
STARTCHAR e
ENCODING 101
SWIDTH 578 0
DWIDTH 6 0
BBX 7 8 0 0
BITMAP
03554000
8C678C10
E99C6F50
F98ABF60
FA9CDF60
FE99CF60
DFFFFF40
4DFFE800
ENDCHAR
STARTCHAR f
ENCODING 102
SWIDTH 578 0
DWIDTH 6 0
BBX 7 8 0 0
BITMAP
03554000
8F578C10
EF6FFF50
FF47BF60
FF6FFF60
FFAFFF60
DFFFFF40
4DFFE800
ENDCHAR
STARTCHAR g
ENCODING 103
SWIDTH 578 0
DWIDTH 6 0
BBX 7 8 0 0
BITMAP
03554000
8E578C10
ED9FFF50
FD9B6E60
FD8F8E60
FF878F60
DFFFFF40
4DFFE800
ENDCHAR
STARTCHAR h
ENCODING 104
SWIDTH 578 0
DWIDTH 6 0
BBX 7 8 0 0
BITMAP
03554000
8CBF9B10
ECAF8D50
FC474D60
FCAF8D60
FDCFBE60
DFFFFF40
4DFFE800
ENDCHAR
STARTCHAR i
ENCODING 105
SWIDTH 578 0
DWIDTH 6 0
BBX 7 8 0 0
BITMAP
03554000
8E747C10
EFF6FF50
FFF6FF60
FFF6FF60
FE777F60
DFFFFF40
4DFFE800
ENDCHAR
STARTCHAR j
ENCODING 106
SWIDTH 578 0
DWIDTH 6 0
BBX 7 8 0 0
BITMAP
03554000
8FFBCC10
EFFACF50
FFFACF60
FFF9CF60
FFA7EF60
DFFFFF40
4DFFE800
ENDCHAR
STARTCHAR k
ENCODING 107
SWIDTH 578 0
DWIDTH 6 0
BBX 7 8 0 0
BITMAP
03554000
8F7F7A10
EF67BF50
FF45FF60
FF6C6F60
FFAFBE60
DFFFFF40
4DFFE800
ENDCHAR
STARTCHAR l
ENCODING 108
SWIDTH 578 0
DWIDTH 6 0
BBX 7 8 0 0
BITMAP
03554000
8F7FFC10
EF6FFF50
FF6FFF60
FF6FFF60
FFA7AF60
DFFFFF40
4DFFE800
ENDCHAR
STARTCHAR m
ENCODING 109
SWIDTH 578 0
DWIDTH 6 0
BBX 7 8 0 0
BITMAP
03554000
88656A10
E6F7BA50
F6F7BA60
F6FFBA60
FAFFDC60
DFFFFF40
4DFFE800
ENDCHAR
STARTCHAR n
ENCODING 110
SWIDTH 578 0
DWIDTH 6 0
BBX 7 8 0 0
BITMAP
03554000
8C676C10
EBBF7F50
FBBF7F60
FBBF7F60
FDDFAF60
DFFFFF40
4DFFE800
ENDCHAR
STARTCHAR o
ENCODING 111
SWIDTH 578 0
DWIDTH 6 0
BBX 7 8 0 0
BITMAP
03554000
8D575C10
EBAF8D50
FBAF8D60
FBAF8E60
FE778F60
DFFFFF40
4DFFE800
ENDCHAR
STARTCHAR p
ENCODING 112
SWIDTH 578 0
DWIDTH 6 0
BBX 7 8 0 0
BITMAP
03554000
8F476C10
EF7F6F50
FF365F60
FF7FFF60
FFAFFF60
DFFFFF40
4DFFE800
ENDCHAR
STARTCHAR q
ENCODING 113
SWIDTH 578 0
DWIDTH 6 0
BBX 7 8 0 0
BITMAP
03554000
8D575C10
ECAF8D50
FCAF8D60
FCAA8D60
FE755F60
DFFFDF40
4DFFE800
ENDCHAR
STARTCHAR r
ENCODING 114
SWIDTH 578 0
DWIDTH 6 0
BBX 7 8 0 0
BITMAP
03554000
8D568C10
ED9F6F50
FD468F60
FD9F7F60
FEBFAF60
DFFFFF40
4DFFE800
ENDCHAR
STARTCHAR s
ENCODING 115
SWIDTH 578 0
DWIDTH 6 0
BBX 7 8 0 0
BITMAP
03554000
8E578C10
ED8FFF50
FF775F60
FFFF6F60
FF879F60
DFFFFF40
4DFFE800
ENDCHAR
STARTCHAR t
ENCODING 116
SWIDTH 578 0
DWIDTH 6 0
BBX 7 8 0 0
BITMAP
03554000
8E747C10
EFF6FF50
FFF6FF60
FFF6FF60
FFFAFF60
DFFFFF40
4DFFE800
ENDCHAR
STARTCHAR u
ENCODING 117
SWIDTH 578 0
DWIDTH 6 0
BBX 7 8 0 0
BITMAP
03554000
8BBF9B10
EBBF8E50
FBBF8E60
FBAF7E60
FE778F60
DFFFFF40
4DFFE800
ENDCHAR
STARTCHAR v
ENCODING 118
SWIDTH 578 0
DWIDTH 6 0
BBX 7 8 0 0
BITMAP
03554000
8CAF7C10
EE6F5F50
FF6D7F60
FF87BF60
FFE7FF60
DFFFFF40
4DFFE800
ENDCHAR
STARTCHAR w
ENCODING 119
SWIDTH 578 0
DWIDTH 6 0
BBX 7 8 0 0
BITMAP
03554000
87F8C710
E6D3BA50
F6A49C60
F8686D60
FD8D8F60
DFFFFF40
4DFFE800
ENDCHAR
STARTCHAR x
ENCODING 120
SWIDTH 578 0
DWIDTH 6 0
BBX 7 8 0 0
BITMAP
03554000
8E8F8C10
EF7A8F50
FFC1EF60
FF6D6F60
FEBFBF60
DFFFFF40
4DFFE800
ENDCHAR
STARTCHAR y
ENCODING 121
SWIDTH 578 0
DWIDTH 6 0
BBX 7 8 0 0
BITMAP
03554000
8E7F6C10
EF6C8F50
FFC2EF60
FFF6FF60
FFFAFF60
DFFFFF40
4DFFE800
ENDCHAR
STARTCHAR z
ENCODING 122
SWIDTH 578 0
DWIDTH 6 0
BBX 7 8 0 0
BITMAP
03554000
8F768C10
EFF7DF50
FFD7FF60
FF6EFF60
FF879F60
DFFFFF40
4DFFE800
ENDCHAR
STARTCHAR braceleft
ENCODING 123
SWIDTH 484 0
DWIDTH 5 0
BBX 6 8 0 0
BITMAP
035400
8F5AC1
EE8FF5
E58FF5
FE7FF5
FF4BF5
DFEEF3
4DFE70
ENDCHAR
STARTCHAR bar
ENCODING 124
SWIDTH 484 0
DWIDTH 5 0
BBX 6 8 0 0
BITMAP
033400
8F8FC1
EF8FF5
FF8FF5
FF8FF5
FF8FF5
DFFFF3
4DFE70
ENDCHAR
STARTCHAR braceright
ENCODING 125
SWIDTH 484 0
DWIDTH 5 0
BBX 6 8 0 0
BITMAP
035400
8D5BC1
EFD9F5
FFD3B5
FFC9F5
FD6AF5
DFDFF3
4DFE70
ENDCHAR
STARTCHAR asciitilde
ENCODING 126
SWIDTH 578 0
DWIDTH 6 0
BBX 7 8 0 0
BITMAP
03554000
8FFFFC10
ED7A9F50
FDECCF60
FFFFFF60
FFFFFF60
DFFFFF40
4DFFE800
ENDCHAR
STARTCHAR uni00A0
ENCODING 160
SWIDTH 151 0
DWIDTH 2 0
BBX 1 1 0 0
BITMAP
00
ENDCHAR
STARTCHAR exclamdown
ENCODING 161
SWIDTH 424 0
DWIDTH 5 0
BBX 5 8 0 0
BITMAP
035100
8FAE30
EFAFA0
FF9FA0
FF9FA0
FFBFA0
DFFF80
4DEB10
ENDCHAR
STARTCHAR cent
ENCODING 162
SWIDTH 578 0
DWIDTH 6 0
BBX 7 8 0 0
BITMAP
03554000
8FC6DC10
EF57DF50
FE78FF60
FF67EF60
FFB5DF60
DFFEFF40
4DFFE800
ENDCHAR
STARTCHAR sterling
ENCODING 163
SWIDTH 578 0
DWIDTH 6 0
BBX 7 8 0 0
BITMAP
03554000
8F86AC10
EF6FCF50
FE49DF60
FF6FFF60
FF97BF60
DFFFFF40
4DFFE800
ENDCHAR
STARTCHAR currency
ENCODING 164
SWIDTH 578 0
DWIDTH 6 0
BBX 7 8 0 0
BITMAP
03554000
8E788C10
EF8F7F50
FF7E7F60
FE898F60
FFFFFF60
DFFFFF40
4DFFE800
ENDCHAR
STARTCHAR yen
ENCODING 165
SWIDTH 578 0
DWIDTH 6 0
BBX 7 8 0 0
BITMAP
03554000
8C9F7C10
EF5ABF50
FF83EF60
FF52CF60
FFFBFF60
DFFFFF40
4DFFE800
ENDCHAR
STARTCHAR brokenbar
ENCODING 166
SWIDTH 484 0
DWIDTH 5 0
BBX 6 8 0 0
BITMAP
035400
8F7FC1
EF6FF5
FFBFF5
FF6FF5
FFAFF5
DFFFF3
4DFE70
ENDCHAR
STARTCHAR section
ENCODING 167
SWIDTH 578 0
DWIDTH 6 0
BBX 7 8 0 0
BITMAP
03554000
8F78AC10
EE6AFF50
FF8BBF60
FFC88F60
FE998F60
DFEEFF40
4DFFE800
ENDCHAR
STARTCHAR dieresis
ENCODING 168
SWIDTH 388 0
DWIDTH 4 0
BBX 5 4 0 0
BITMAP
012000
8FFB10
E89E30
8CCA00
ENDCHAR
STARTCHAR copyright
ENCODING 169
SWIDTH 578 0
DWIDTH 6 0
BBX 7 8 0 0
BITMAP
03554000
8D9A9C10
E989D950
CC9FF960
EA8BE960
FB998D60
DFEDFF40
4DFFE800
ENDCHAR
STARTCHAR ordfeminine
ENCODING 170
SWIDTH 578 0
DWIDTH 6 0
BBX 7 8 0 0
BITMAP
03554000
8FA78C10
EFDC6F50
FF5A6F60
FF679F60
FFFFFF60
DFFFFF40
4DFFE800
ENDCHAR
STARTCHAR guillemotleft
ENCODING 171
SWIDTH 578 0
DWIDTH 6 0
BBX 7 8 0 0
BITMAP
03554000
8FEEDC10
EF9ADF50
FBB9FF60
FE98FF60
FFCDBF60
DFFFFF40
4DFFE800
ENDCHAR
STARTCHAR uni00AD
ENCODING 173
SWIDTH 428 0
DWIDTH 5 0
BBX 5 8 0 0
BITMAP
035200
8FFF40
EA7CA0
FEEFB0
FFFFB0
FFFFB0
DFFF90
4DEB10
ENDCHAR
STARTCHAR registered
ENCODING 174
SWIDTH 578 0
DWIDTH 6 0
BBX 7 8 0 0
BITMAP
03554000
8D9A9C10
E979A950
CC78B960
EA9F9960
FB9B8D60
DFEDFF40
4DFFE800
ENDCHAR
STARTCHAR macron
ENCODING 175
SWIDTH 428 0
DWIDTH 5 0
BBX 5 4 0 0
BITMAP
013100
8FFE40
E96DA0
9FFF50
ENDCHAR
STARTCHAR degree
ENCODING 176
SWIDTH 428 0
DWIDTH 5 0
BBX 5 8 0 0
BITMAP
035200
8A7C40
E87BA0
FFFFB0
FFFFB0
FFFFB0
DFFF90
4DEB10
ENDCHAR
STARTCHAR plusminus
ENCODING 177
SWIDTH 428 0
DWIDTH 5 0
BBX 5 8 0 0
BITMAP
035200
8F7F40
E739A0
FF8FB0
F96CB0
FFFFB0
DFFF90
4DEB10
ENDCHAR
STARTCHAR uni00B2
ENCODING 178
SWIDTH 578 0
DWIDTH 6 0
BBX 7 8 0 0
BITMAP
03554000
8F76BC10
EF96CF50
FF57DF60
FFFFFF60
FFFFFF60
DFFFFF40
4DFFE800
ENDCHAR
STARTCHAR uni00B3
ENCODING 179
SWIDTH 578 0
DWIDTH 6 0
BBX 7 8 0 0
BITMAP
03554000
8F878C10
EFF85F50
FF766F60
FFFFFF60
FFFFFF60
DFFFFF40
4DFFE800
ENDCHAR
STARTCHAR acute
ENCODING 180
SWIDTH 308 0
DWIDTH 3 0
BBX 4 4 0 0
BITMAP
3A81
A9E5
E8D1
BD50
ENDCHAR
STARTCHAR uni00B5
ENCODING 181
SWIDTH 578 0
DWIDTH 6 0
BBX 7 8 0 0
BITMAP
03554000
8ADF8C10
E9DF6F50
F9DF6F60
F9DF6F60
F9679F60
DDFFFF40
4DFFE800
ENDCHAR
STARTCHAR paragraph
ENCODING 182
SWIDTH 578 0
DWIDTH 6 0
BBX 7 8 0 0
BITMAP
03554000
8D45AC10
EB04AF50
FE87AF60
FFFAAF60
FFFDDF60
DFFFFF40
4DFFE800
ENDCHAR
STARTCHAR periodcentered
ENCODING 183
SWIDTH 428 0
DWIDTH 5 0
BBX 5 8 0 0
BITMAP
035200
8FFF40
EFAFA0
FFDFB0
FFFFB0
FFFFB0
DFFF90
4DEB10
ENDCHAR
STARTCHAR cedilla
ENCODING 184
SWIDTH 101 0
DWIDTH 1 0
BBX 2 2 0 -2
BITMAP
91
71
ENDCHAR
STARTCHAR uni00B9
ENCODING 185
SWIDTH 578 0
DWIDTH 6 0
BBX 7 8 0 0
BITMAP
03554000
8F97FC10
EFF6FF50
FFF6FF60
FFFFFF60
FFFFFF60
DFFFFF40
4DFFE800
ENDCHAR
STARTCHAR ordmasculine
ENCODING 186
SWIDTH 578 0
DWIDTH 6 0
BBX 7 8 0 0
BITMAP
03554000
8F676C10
EE7F6F50
FE7F6F60
FF676F60
FFFFFF60
DFFFFF40
4DFFE800
ENDCHAR
STARTCHAR guillemotright
ENCODING 187
SWIDTH 578 0
DWIDTH 6 0
BBX 7 8 0 0
BITMAP
03554000
8EEDFC10
EF89EF50
FFD98F60
FFABBF60
FEBBFF60
DFFFFF40
4DFFE800
ENDCHAR
STARTCHAR onequarter
ENCODING 188
SWIDTH 578 0
DWIDTH 6 0
BBX 7 8 0 0
BITMAP
03554000
74D8FC10
E8AAFF50
F865CA60
FF678750
FFAE9750
DFFFFF40
4DFFE800
ENDCHAR
STARTCHAR onehalf
ENCODING 189
SWIDTH 578 0
DWIDTH 6 0
BBX 7 8 0 0
BITMAP
03554000
74D8FC10
E8A9AD50
F86A9560
FF688D60
FFAB7A60
DFFFFF40
4DFFE800
ENDCHAR
STARTCHAR threequarters
ENCODING 190
SWIDTH 578 0
DWIDTH 6 0
BBX 7 8 0 0
BITMAP
03554000
74D8FC10
E8A9AC50
F86A9460
FF6CB560
FFAC7960
DFFFFF40
4DFFE800
ENDCHAR
STARTCHAR questiondown
ENCODING 191
SWIDTH 578 0
DWIDTH 6 0
BBX 7 8 0 0
BITMAP
03554000
8FFAFC10
EFE7FF50
FF6CFF60
FF8EBF60
FFA8BF60
DFFFFF40
4DFFE800
ENDCHAR
STARTCHAR Agrave
ENCODING 192
SWIDTH 578 0
DWIDTH 6 0
BBX 7 11 0 0
BITMAP
05A60000
0E8F1000
08BC5000
03FF7000
8F668C10
EE7F6F50
FC474F60
FAAF6F60
FCDFBE60
DFFFFF40
4DFFE800
ENDCHAR
STARTCHAR Aacute
ENCODING 193
SWIDTH 578 0
DWIDTH 6 0
BBX 7 11 0 0
BITMAP
003A8100
00A9E500
00E8D100
03FF9000
8F668C10
EE7F6F50
FC474F60
FAAF6F60
FCDFBE60
DFFFFF40
4DFFE800
ENDCHAR
STARTCHAR Acircumflex
ENCODING 194
SWIDTH 578 0
DWIDTH 6 0
BBX 7 11 0 0
BITMAP
009D5000
03E7C000
08AAE300
09FFF200
8F668C10
EE7F6F50
FC474F60
FAAF6F60
FCDFBE60
DFFFFF40
4DFFE800
ENDCHAR
STARTCHAR Atilde
ENCODING 195
SWIDTH 578 0
DWIDTH 6 0
BBX 7 11 0 0
BITMAP
00674000
0AFFF600
0FABCA00
0DFFF600
8F668C10
EE7F6F50
FC474F60
FAAF6F60
FCDFBE60
DFFFFF40
4DFFE800
ENDCHAR
STARTCHAR Adieresis
ENCODING 196
SWIDTH 578 0
DWIDTH 6 0
BBX 7 11 0 0
BITMAP
00120000
05EFD200
0B8BB700
08FFF200
8F668C10
EE7F6F50
FC474F60
FAAF6F60
FCDFBE60
DFFFFF40
4DFFE800
ENDCHAR
STARTCHAR Aring
ENCODING 197
SWIDTH 578 0
DWIDTH 6 0
BBX 7 11 0 0
BITMAP
00351000
06C9D100
0B89C400
0BFFF200
8F668C10
EE7F6F50
FC474F60
FAAF6F60
FCDFBE60
DFFFFF40
4DFFE800
ENDCHAR
STARTCHAR AE
ENCODING 198
SWIDTH 578 0
DWIDTH 6 0
BBX 7 8 0 0
BITMAP
03554000
8D546C10
EAB7FF50
F8D47E60
F766FF60
FAF87E60
DFFFFF40
4DFFE800
ENDCHAR
STARTCHAR Ccedilla
ENCODING 199
SWIDTH 578 0
DWIDTH 6 0
BBX 7 8 0 0
BITMAP
03554000
8D57BC10
EABFFF50
FABFFF60
FABFFF60
FE63BF60
DF7BFF40
4DEDE800
ENDCHAR
STARTCHAR Egrave
ENCODING 200
SWIDTH 578 0
DWIDTH 6 0
BBX 7 11 0 0
BITMAP
04A70000
0C9E3000
06DA7000
03FF9000
8F578C10
EF7FFF50
FF46BF60
FF7FFF60
FF878F60
DFFFFF40
4DFFE800
ENDCHAR
STARTCHAR Eacute
ENCODING 201
SWIDTH 578 0
DWIDTH 6 0
BBX 7 11 0 0
BITMAP
002A9100
008AD600
00D8E100
03FFA000
8F578C10
EF7FFF50
FF46BF60
FF7FFF60
FF878F60
DFFFFF40
4DFFE800
ENDCHAR
STARTCHAR Ecircumflex
ENCODING 202
SWIDTH 578 0
DWIDTH 6 0
BBX 7 11 0 0
BITMAP
007D6000
02E7E000
07ABC500
08FFF400
8F578C10
EF7FFF50
FF46BF60
FF7FFF60
FF878F60
DFFFFF40
4DFFE800
ENDCHAR
STARTCHAR Edieresis
ENCODING 203
SWIDTH 578 0
DWIDTH 6 0
BBX 7 11 0 0
BITMAP
00020000
04EFE300
098CA800
07FFF300
8F578C10
EF7FFF50
FF46BF60
FF7FFF60
FF878F60
DFFFFF40
4DFFE800
ENDCHAR
STARTCHAR Igrave
ENCODING 204
SWIDTH 578 0
DWIDTH 6 0
BBX 7 11 0 0
BITMAP
04A80000
0C9E3000
06DA7000
03FF9000
8E747C10
EFF6FF50
FFF6FF60
FFF6FF60
FE777F60
DFFFFF40
4DFFE800
ENDCHAR
STARTCHAR Iacute
ENCODING 205
SWIDTH 578 0
DWIDTH 6 0
BBX 7 11 0 0
BITMAP
00199200
008AD700
00C8E200
03EFB000
8E747C10
EFF6FF50
FFF6FF60
FFF6FF60
FE777F60
DFFFFF40
4DFFE800
ENDCHAR
STARTCHAR Icircumflex
ENCODING 206
SWIDTH 578 0
DWIDTH 6 0
BBX 7 11 0 0
BITMAP
007D6000
01E6E100
06BBC500
07FFF400
8E747C10
EFF6FF50
FFF6FF60
FFF6FF60
FE777F60
DFFFFF40
4DFFE800
ENDCHAR
STARTCHAR Idieresis
ENCODING 207
SWIDTH 578 0
DWIDTH 6 0
BBX 7 11 0 0
BITMAP
00020000
04EFE400
099CA900
06FFF400
8E747C10
EFF6FF50
FFF6FF60
FFF6FF60
FE777F60
DFFFFF40
4DFFE800
ENDCHAR
STARTCHAR Eth
ENCODING 208
SWIDTH 578 0
DWIDTH 6 0
BBX 7 8 0 0
BITMAP
03554000
8C575C10
ECAF8D50
F98F8D60
FCAF8D60
FD778F60
DFFFFF40
4DFFE800
ENDCHAR
STARTCHAR Ntilde
ENCODING 209
SWIDTH 578 0
DWIDTH 6 0
BBX 7 11 0 0
BITMAP
01673000
0CFFF400
1F9BC800
0FFFF400
8C676C10
EBBF7F50
FBBF7F60
FBBF7F60
FDDFAF60
DFFFFF40
4DFFE800
ENDCHAR
STARTCHAR Ograve
ENCODING 210
SWIDTH 578 0
DWIDTH 6 0
BBX 7 11 0 0
BITMAP
05A70000
0D9E2000
07CB6000
03FF8000
8D575C10
EBAF8D50
FBAF8D60
FBAF8E60
FE778F60
DFFFFF40
4DFFE800
ENDCHAR
STARTCHAR Oacute
ENCODING 211
SWIDTH 578 0
DWIDTH 6 0
BBX 7 11 0 0
BITMAP
002A9100
009AE600
00D8E100
03FFA000
8D575C10
EBAF8D50
FBAF8D60
FBAF8E60
FE778F60
DFFFFF40
4DFFE800
ENDCHAR
STARTCHAR Ocircumflex
ENCODING 212
SWIDTH 578 0
DWIDTH 6 0
BBX 7 11 0 0
BITMAP
008D5000
02E7D000
07ABD400
08FFF300
8D575C10
EBAF8D50
FBAF8D60
FBAF8E60
FE778F60
DFFFFF40
4DFFE800
ENDCHAR
STARTCHAR Otilde
ENCODING 213
SWIDTH 578 0
DWIDTH 6 0
BBX 7 11 0 0
BITMAP
00584000
09FFF700
0EABBB00
0CFFF700
8D575C10
EBAF8D50
FBAF8D60
FBAF8E60
FE778F60
DFFFFF40
4DFFE800
ENDCHAR
STARTCHAR Odieresis
ENCODING 214
SWIDTH 578 0
DWIDTH 6 0
BBX 7 11 0 0
BITMAP
00020000
04EFE300
0A8CA800
07FFF300
8D575C10
EBAF8D50
FBAF8D60
FBAF8E60
FE778F60
DFFFFF40
4DFFE800
ENDCHAR
STARTCHAR multiply
ENCODING 215
SWIDTH 578 0
DWIDTH 6 0
BBX 7 8 0 0
BITMAP
03554000
8FFFFC10
EFABCF50
FFC4EF60
FFDFDF60
FFFFFF60
DFFFFF40
4DFFE800
ENDCHAR
STARTCHAR Oslash
ENCODING 216
SWIDTH 578 0
DWIDTH 6 0
BBX 7 8 0 0
BITMAP
03554000
8D574C10
EABA4E50
FAA87E60
FA3E7E60
FE779F60
DFFFFF40
4DFFE800
ENDCHAR
STARTCHAR Ugrave
ENCODING 217
SWIDTH 578 0
DWIDTH 6 0
BBX 7 11 0 0
BITMAP
04A70000
0C9E3000
06DA7000
03FF9000
8BBF9B10
EBBF8E50
FBBF8E60
FBAF7E60
FE778F60
DFFFFF40
4DFFE800
ENDCHAR
STARTCHAR Uacute
ENCODING 218
SWIDTH 578 0
DWIDTH 6 0
BBX 7 11 0 0
BITMAP
002A9100
008AD600
00D8E100
03FFA000
8BBF9B10
EBBF8E50
FBBF8E60
FBAF7E60
FE778F60
DFFFFF40
4DFFE800
ENDCHAR
STARTCHAR Ucircumflex
ENCODING 219
SWIDTH 578 0
DWIDTH 6 0
BBX 7 11 0 0
BITMAP
007D6000
02E7E000
07ABC500
08FFF400
8BBF9B10
EBBF8E50
FBBF8E60
FBAF7E60
FE778F60
DFFFFF40
4DFFE800
ENDCHAR
STARTCHAR Udieresis
ENCODING 220
SWIDTH 578 0
DWIDTH 6 0
BBX 7 11 0 0
BITMAP
00020000
04EFE300
098CA800
07FFF300
8BBF9B10
EBBF8E50
FBBF8E60
FBAF7E60
FE778F60
DFFFFF40
4DFFE800
ENDCHAR
STARTCHAR Yacute
ENCODING 221
SWIDTH 578 0
DWIDTH 6 0
BBX 7 11 0 0
BITMAP
002A9100
009AD600
00D8E100
03FFA000
8E7F6C10
EF6C8F50
FFC2EF60
FFF6FF60
FFFAFF60
DFFFFF40
4DFFE800
ENDCHAR
STARTCHAR Thorn
ENCODING 222
SWIDTH 578 0
DWIDTH 6 0
BBX 7 8 0 0
BITMAP
03554000
8F6EFC10
EF484F50
FF5B5F60
FF5ACF60
FFAFFF60
DFFFFF40
4DFFE800
ENDCHAR
STARTCHAR germandbls
ENCODING 223
SWIDTH 578 0
DWIDTH 6 0
BBX 7 8 0 0
BITMAP
03554000
8D577C10
EBBE7F50
FBBC6F60
FBBF7E60
FDC78F60
DFFFFF40
4DFFE800
ENDCHAR
STARTCHAR agrave
ENCODING 224
SWIDTH 578 0
DWIDTH 6 0
BBX 7 11 0 0
BITMAP
04A70000
0C9E3000
06DA7000
03FF9000
8F678C10
EFFF7F50
FC666F60
F9CF7F60
FD77AF60
DFFFFF40
4DFFE800
ENDCHAR
STARTCHAR aacute
ENCODING 225
SWIDTH 578 0
DWIDTH 6 0
BBX 7 11 0 0
BITMAP
002A9100
008AD600
00D8E100
03FFA000
8F678C10
EFFF7F50
FC666F60
F9CF7F60
FD77AF60
DFFFFF40
4DFFE800
ENDCHAR
STARTCHAR acircumflex
ENCODING 226
SWIDTH 578 0
DWIDTH 6 0
BBX 7 11 0 0
BITMAP
007D6000
02E7E000
07ABC500
08FFF400
8F678C10
EFFF7F50
FC666F60
F9CF7F60
FD77AF60
DFFFFF40
4DFFE800
ENDCHAR
STARTCHAR atilde
ENCODING 227
SWIDTH 578 0
DWIDTH 6 0
BBX 7 11 0 0
BITMAP
00584000
09FFF700
0DABBC00
0CFFF800
8F678C10
EFFF7F50
FC666F60
F9CF7F60
FD77AF60
DFFFFF40
4DFFE800
ENDCHAR
STARTCHAR adieresis
ENCODING 228
SWIDTH 578 0
DWIDTH 6 0
BBX 7 11 0 0
BITMAP
00020000
04EFE300
0A8CA800
07FFF300
8F678C10
EFFF7F50
FC666F60
F9CF7F60
FD77AF60
DFFFFF40
4DFFE800
ENDCHAR
STARTCHAR aring
ENCODING 229
SWIDTH 578 0
DWIDTH 6 0
BBX 7 11 0 0
BITMAP
00362000
04D9D200
098AB600
09FFF400
8F678C10
EFFF7F50
FC666F60
F9CF7F60
FD77AF60
DFFFFF40
4DFFE800
ENDCHAR
STARTCHAR ae
ENCODING 230
SWIDTH 578 0
DWIDTH 6 0
BBX 7 8 0 0
BITMAP
03554000
8D546C10
EAB7FF50
F8D47E60
F766FF60
FAF87E60
DFFFFF40
4DFFE800
ENDCHAR
STARTCHAR ccedilla
ENCODING 231
SWIDTH 578 0
DWIDTH 6 0
BBX 7 8 0 0
BITMAP
03554000
8D67BC10
EABFFF50
FABFFF60
FABFFF60
FE63BF60
DF7CFF40
4DEDE800
ENDCHAR
STARTCHAR egrave
ENCODING 232
SWIDTH 578 0
DWIDTH 6 0
BBX 7 11 0 0
BITMAP
05A70000
0D9F2000
07CB6000
03FF8000
8C678C10
E99C6F50
F98ABF60
FA9CDF60
FE99CF60
DFFFFF40
4DFFE800
ENDCHAR
STARTCHAR eacute
ENCODING 233
SWIDTH 578 0
DWIDTH 6 0
BBX 7 11 0 0
BITMAP
003A8100
00B9F400
00F8D000
03FF8000
8C678C10
E99C6F50
F98ABF60
FA9CDF60
FE99CF60
DFFFFF40
4DFFE800
ENDCHAR
STARTCHAR ecircumflex
ENCODING 234
SWIDTH 578 0
DWIDTH 6 0
BBX 7 11 0 0
BITMAP
00AD3000
05C9B000
0A9AF100
0BFFF100
8C678C10
E99C6F50
F98ABF60
FA9CDF60
FE99CF60
DFFFFF40
4DFFE800
ENDCHAR
STARTCHAR edieresis
ENCODING 235
SWIDTH 578 0
DWIDTH 6 0
BBX 7 11 0 0
BITMAP
00120000
08FFC100
0E89D400
0AFFE100
8C678C10
E99C6F50
F98ABF60
FA9CDF60
FE99CF60
DFFFFF40
4DFFE800
ENDCHAR
STARTCHAR igrave
ENCODING 236
SWIDTH 578 0
DWIDTH 6 0
BBX 7 11 0 0
BITMAP
04A80000
0C9E3000
06DA7000
03FF9000
8E747C10
EFF6FF50
FFF6FF60
FFF6FF60
FE777F60
DFFFFF40
4DFFE800
ENDCHAR
STARTCHAR iacute
ENCODING 237
SWIDTH 578 0
DWIDTH 6 0
BBX 7 11 0 0
BITMAP
00299100
008AD700
00C8E200
03FFB000
8E747C10
EFF6FF50
FFF6FF60
FFF6FF60
FE777F60
DFFFFF40
4DFFE800
ENDCHAR
STARTCHAR icircumflex
ENCODING 238
SWIDTH 578 0
DWIDTH 6 0
BBX 7 11 0 0
BITMAP
007D6000
01E6E000
06BBC500
08FFF400
8E747C10
EFF6FF50
FFF6FF60
FFF6FF60
FE777F60
DFFFFF40
4DFFE800
ENDCHAR
STARTCHAR idieresis
ENCODING 239
SWIDTH 578 0
DWIDTH 6 0
BBX 7 11 0 0
BITMAP
00020000
04EFE300
098CA800
07FFF300
8E747C10
EFF6FF50
FFF6FF60
FFF6FF60
FE777F60
DFFFFF40
4DFFE800
ENDCHAR
STARTCHAR eth
ENCODING 240
SWIDTH 578 0
DWIDTH 6 0
BBX 7 8 0 0
BITMAP
03554000
8C575C10
ECAF8D50
F98F8D60
FCAF8D60
FD778F60
DFFFFF40
4DFFE800
ENDCHAR
STARTCHAR ntilde
ENCODING 241
SWIDTH 578 0
DWIDTH 6 0
BBX 7 11 0 0
BITMAP
01673000
0CFFF400
1F9BC800
0FFFF400
8C676C10
EBBF7F50
FBBF7F60
FBBF7F60
FDDFAF60
DFFFFF40
4DFFE800
ENDCHAR
STARTCHAR oacute
ENCODING 243
SWIDTH 578 0
DWIDTH 6 0
BBX 7 11 0 0
BITMAP
003A8100
00B9E400
00E8D000
03FF9000
8D575C10
EBAF8D50
FBAF8D60
FBAF8E60
FE778F60
DFFFFF40
4DFFE800
ENDCHAR
STARTCHAR ocircumflex
ENCODING 244
SWIDTH 578 0
DWIDTH 6 0
BBX 7 11 0 0
BITMAP
007D6000
02E7E000
07ABC500
08FFF400
8D575C10
EBAF8D50
FBAF8D60
FBAF8E60
FE778F60
DFFFFF40
4DFFE800
ENDCHAR
STARTCHAR otilde
ENCODING 245
SWIDTH 578 0
DWIDTH 6 0
BBX 7 11 0 0
BITMAP
00574000
0AFFF600
0EABBB00
0CFFF700
8D575C10
EBAF8D50
FBAF8D60
FBAF8E60
FE778F60
DFFFFF40
4DFFE800
ENDCHAR
STARTCHAR odieresis
ENCODING 246
SWIDTH 578 0
DWIDTH 6 0
BBX 7 11 0 0
BITMAP
00020000
04EFE300
098CA800
07FFF300
8D575C10
EBAF8D50
FBAF8D60
FBAF8E60
FE778F60
DFFFFF40
4DFFE800
ENDCHAR
STARTCHAR divide
ENCODING 247
SWIDTH 428 0
DWIDTH 5 0
BBX 5 8 0 0
BITMAP
035200
8FAF40
EA4CA0
FE7FB0
FFFFB0
FFFFB0
DFFF90
4DEB10
ENDCHAR
STARTCHAR oslash
ENCODING 248
SWIDTH 578 0
DWIDTH 6 0
BBX 7 8 0 0
BITMAP
03554000
8D574C10
EABA4E50
FAA87E60
FA3E7E60
FE779F60
DFFFFF40
4DFFE800
ENDCHAR
STARTCHAR ugrave
ENCODING 249
SWIDTH 578 0
DWIDTH 6 0
BBX 7 11 0 0
BITMAP
04A80000
0C9E3000
06DA7000
03FF9000
8BBF9B10
EBBF8E50
FBBF8E60
FBAF7E60
FE778F60
DFFFFF40
4DFFE800
ENDCHAR
STARTCHAR uacute
ENCODING 250
SWIDTH 578 0
DWIDTH 6 0
BBX 7 11 0 0
BITMAP
00299100
008AD700
00C8E200
03FFB000
8BBF9B10
EBBF8E50
FBBF8E60
FBAF7E60
FE778F60
DFFFFF40
4DFFE800
ENDCHAR
STARTCHAR ucircumflex
ENCODING 251
SWIDTH 578 0
DWIDTH 6 0
BBX 7 11 0 0
BITMAP
007D6000
01E6E000
06BBC500
08FFF400
8BBF9B10
EBBF8E50
FBBF8E60
FBAF7E60
FE778F60
DFFFFF40
4DFFE800
ENDCHAR
STARTCHAR udieresis
ENCODING 252
SWIDTH 578 0
DWIDTH 6 0
BBX 7 11 0 0
BITMAP
00020000
04EFE300
098CA800
07FFF300
8BBF9B10
EBBF8E50
FBBF8E60
FBAF7E60
FE778F60
DFFFFF40
4DFFE800
ENDCHAR
STARTCHAR yacute
ENCODING 253
SWIDTH 578 0
DWIDTH 6 0
BBX 7 11 0 0
BITMAP
002A9100
009AD600
00D8E100
03FFA000
8E7F6C10
EF6C8F50
FFC2EF60
FFF6FF60
FFFAFF60
DFFFFF40
4DFFE800
ENDCHAR
STARTCHAR thorn
ENCODING 254
SWIDTH 578 0
DWIDTH 6 0
BBX 7 8 0 0
BITMAP
03554000
8F6EFC10
EF484F50
FF5B5F60
FF5ACF60
FFAFFF60
DFFFFF40
4DFFE800
ENDCHAR
STARTCHAR ydieresis
ENCODING 255
SWIDTH 578 0
DWIDTH 6 0
BBX 7 11 0 0
BITMAP
00020000
04EFE300
0A8CA800
07FFF300
8E7F6C10
EF6C8F50
FFC2EF60
FFF6FF60
FFFAFF60
DFFFFF40
4DFFE800
ENDCHAR
STARTCHAR Amacron
ENCODING 256
SWIDTH 578 0
DWIDTH 6 0
BBX 7 11 0 0
BITMAP
00131000
08FFE400
0F96DA00
0CFFF500
8F668C10
EE7F6F50
FC474F60
FAAF6F60
FCDFBE60
DFFFFF40
4DFFE800
ENDCHAR
STARTCHAR amacron
ENCODING 257
SWIDTH 578 0
DWIDTH 6 0
BBX 7 11 0 0
BITMAP
00131000
07FFE500
0D96CB00
0AFFF600
8F678C10
EFFF7F50
FC666F60
F9CF7F60
FD77AF60
DFFFFF40
4DFFE800
ENDCHAR
STARTCHAR Abreve
ENCODING 258
SWIDTH 578 0
DWIDTH 6 0
BBX 7 11 0 0
BITMAP
00131000
08FFE400
0FABCA00
0CFFF500
8F668C10
EE7F6F50
FC474F60
FAAF6F60
FCDFBE60
DFFFFF40
4DFFE800
ENDCHAR
STARTCHAR abreve
ENCODING 259
SWIDTH 578 0
DWIDTH 6 0
BBX 7 11 0 0
BITMAP
00131000
07FFE500
0DBCBB00
0AFFF600
8F678C10
EFFF7F50
FC666F60
F9CF7F60
FD77AF60
DFFFFF40
4DFFE800
ENDCHAR
STARTCHAR Aogonek
ENCODING 260
SWIDTH 578 0
DWIDTH 6 0
BBX 7 8 0 0
BITMAP
03554000
8F668C10
EE7F6F50
FC474F60
FAAF6F60
FCDF7E60
DFFF6F40
4DFFB700
ENDCHAR
STARTCHAR aogonek
ENCODING 261
SWIDTH 578 0
DWIDTH 6 0
BBX 7 8 0 0
BITMAP
03554000
8F678C10
EFFF6F50
FC665F60
F9CF6F60
FD639F60
DFAAFF40
4DFCE800
ENDCHAR
STARTCHAR Cacute
ENCODING 262
SWIDTH 578 0
DWIDTH 6 0
BBX 7 11 0 0
BITMAP
00199200
008AD700
00C8E200
03EFB000
8D57BC10
EABFFF50
FABFFF60
FABFFF60
FE77BF60
DFFFFF40
4DFFE800
ENDCHAR
STARTCHAR cacute
ENCODING 263
SWIDTH 578 0
DWIDTH 6 0
BBX 7 11 0 0
BITMAP
002A9100
008AD600
00D8E100
03FFA000
8D57BC10
EABFFF50
FABFFF60
FABFFF60
FE77BF60
DFFFFF40
4DFFE800
ENDCHAR
STARTCHAR Ccircumflex
ENCODING 264
SWIDTH 578 0
DWIDTH 6 0
BBX 7 11 0 0
BITMAP
008D5000
02E7D000
08AAD300
09FFF300
8D57BC10
EABFFF50
FABFFF60
FABFFF60
FE77BF60
DFFFFF40
4DFFE800
ENDCHAR
STARTCHAR ccircumflex
ENCODING 265
SWIDTH 578 0
DWIDTH 6 0
BBX 7 11 0 0
BITMAP
009D5000
03E7C000
08AAE300
09FFF200
8D57BC10
EABFFF50
FABFFF60
FABFFF60
FE77BF60
DFFFFF40
4DFFE800
ENDCHAR
STARTCHAR Cdotaccent
ENCODING 266
SWIDTH 578 0
DWIDTH 6 0
BBX 7 11 0 0
BITMAP
00220000
0BFFD100
4FCBF600
1FFFF300
8D57BC10
EABFFF50
FABFFF60
FABFFF60
FE77BF60
DFFFFF40
4DFFE800
ENDCHAR
STARTCHAR cdotaccent
ENCODING 267
SWIDTH 578 0
DWIDTH 6 0
BBX 7 11 0 0
BITMAP
00230000
0AFFD200
2FD9F800
0FFFF500
8D57BC10
EABFFF50
FABFFF60
FABFFF60
FE77BF60
DFFFFF40
4DFFE800
ENDCHAR
STARTCHAR Ccaron
ENCODING 268
SWIDTH 578 0
DWIDTH 6 0
BBX 7 11 0 0
BITMAP
04876000
0CBBF100
0AA9D000
07FFB000
8D57BC10
EABFFF50
FABFFF60
FABFFF60
FE77BF60
DFFFFF40
4DFFE800
ENDCHAR
STARTCHAR ccaron
ENCODING 269
SWIDTH 578 0
DWIDTH 6 0
BBX 7 11 0 0
BITMAP
03877000
0BBBF200
08B8E000
06FFC000
8D57BC10
EABFFF50
FABFFF60
FABFFF60
FE77BF60
DFFFFF40
4DFFE800
ENDCHAR
STARTCHAR Dcaron
ENCODING 270
SWIDTH 578 0
DWIDTH 6 0
BBX 7 11 0 0
BITMAP
04877000
0BBBF200
09B9E000
06FFC000
8C575C10
ECAF8D50
FCAF8D60
FCAF8D60
FD778F60
DFFFFF40
4DFFE800
ENDCHAR
STARTCHAR dcaron
ENCODING 271
SWIDTH 578 0
DWIDTH 6 0
BBX 7 8 0 0
BITMAP
03554000
87766810
E7FD7E50
F7FD8F60
F7FD9F60
F977DF60
DFFFFF40
4DFFE800
ENDCHAR
STARTCHAR Dcroat
ENCODING 272
SWIDTH 578 0
DWIDTH 6 0
BBX 7 8 0 0
BITMAP
03554000
8C575C10
EA9F8D50
F76E8D60
FCAF8D60
FD778F60
DFFFFF40
4DFFE800
ENDCHAR
STARTCHAR dcroat
ENCODING 273
SWIDTH 578 0
DWIDTH 6 0
BBX 7 8 0 0
BITMAP
03554000
8C575C10
EA9F8D50
F76E8D60
FCAF8D60
FD778F60
DFFFFF40
4DFFE800
ENDCHAR
STARTCHAR Emacron
ENCODING 274
SWIDTH 578 0
DWIDTH 6 0
BBX 7 11 0 0
BITMAP
00131000
07FFE500
0D96CB00
0AFFF600
8F578C10
EF7FFF50
FF46BF60
FF7FFF60
FF878F60
DFFFFF40
4DFFE800
ENDCHAR
STARTCHAR emacron
ENCODING 275
SWIDTH 578 0
DWIDTH 6 0
BBX 7 11 0 0
BITMAP
00230000
0AFFD200
2F76E700
0EFFF300
8C678C10
E99C6F50
F98ABF60
FA9CDF60
FE99CF60
DFFFFF40
4DFFE800
ENDCHAR
STARTCHAR Ebreve
ENCODING 276
SWIDTH 578 0
DWIDTH 6 0
BBX 7 11 0 0
BITMAP
00131000
07FFE500
0DBCBB00
0AFFF600
8F578C10
EF7FFF50
FF46BF60
FF7FFF60
FF878F60
DFFFFF40
4DFFE800
ENDCHAR
STARTCHAR ebreve
ENCODING 277
SWIDTH 578 0
DWIDTH 6 0
BBX 7 11 0 0
BITMAP
00230000
0AFFD200
2FAAE700
0EFFF300
8C678C10
E99C6F50
F98ABF60
FA9CDF60
FE99CF60
DFFFFF40
4DFFE800
ENDCHAR
STARTCHAR Edotaccent
ENCODING 278
SWIDTH 578 0
DWIDTH 6 0
BBX 7 11 0 0
BITMAP
00131000
07FFE500
0DF8FC00
0CFFF800
8F578C10
EF7FFF50
FF46BF60
FF7FFF60
FF878F60
DFFFFF40
4DFFE800
ENDCHAR
STARTCHAR edotaccent
ENCODING 279
SWIDTH 578 0
DWIDTH 6 0
BBX 7 11 0 0
BITMAP
00230000
0AFFD200
2FDAF800
0FFFF400
8C678C10
E99C6F50
F98ABF60
FA9CDF60
FE99CF60
DFFFFF40
4DFFE800
ENDCHAR
STARTCHAR Eogonek
ENCODING 280
SWIDTH 578 0
DWIDTH 6 0
BBX 7 8 0 0
BITMAP
03554000
8F578C10
EF7FFF50
FF46BF60
FF7FFF60
FF864F60
DFFB9F40
4DFFB800
ENDCHAR
STARTCHAR eogonek
ENCODING 281
SWIDTH 578 0
DWIDTH 6 0
BBX 7 8 0 0
BITMAP
03554000
8C678C10
E99C6F50
F98ABF60
FA9CDF60
FE94CF60
DFE6FF40
4DFEE800
ENDCHAR
STARTCHAR Ecaron
ENCODING 282
SWIDTH 578 0
DWIDTH 6 0
BBX 7 11 0 0
BITMAP
02878100
07CDC600
04E6F400
03FFF100
8F578C10
EF7FFF50
FF46BF60
FF7FFF60
FF878F60
DFFFFF40
4DFFE800
ENDCHAR
STARTCHAR ecaron
ENCODING 283
SWIDTH 578 0
DWIDTH 6 0
BBX 7 11 0 0
BITMAP
04877000
0BBBF200
09B9E000
06FFC000
8C678C10
E99C6F50
F98ABF60
FA9CDF60
FE99CF60
DFFFFF40
4DFFE800
ENDCHAR
STARTCHAR Gcircumflex
ENCODING 284
SWIDTH 578 0
DWIDTH 6 0
BBX 7 11 0 0
BITMAP
009D4000
03D8C000
099AE200
0AFFF200
8E578C10
ED9FFF50
FD9B6E60
FD8F8E60
FF878F60
DFFFFF40
4DFFE800
ENDCHAR
STARTCHAR gcircumflex
ENCODING 285
SWIDTH 578 0
DWIDTH 6 0
BBX 7 11 0 0
BITMAP
009D4000
03D8C000
099AE200
0AFFF200
8E578C10
ED9FFF50
FD9B6E60
FD8F8E60
FF878F60
DFFFFF40
4DFFE800
ENDCHAR
STARTCHAR Gbreve
ENCODING 286
SWIDTH 578 0
DWIDTH 6 0
BBX 7 11 0 0
BITMAP
00130000
09FFE300
0FABD900
0CFFF400
8E578C10
ED9FFF50
FD9B6E60
FD8F8E60
FF878F60
DFFFFF40
4DFFE800
ENDCHAR
STARTCHAR gbreve
ENCODING 287
SWIDTH 578 0
DWIDTH 6 0
BBX 7 11 0 0
BITMAP
00230000
0AFFD200
2FAAE700
0EFFF300
8E578C10
ED9FFF50
FD9B6E60
FD8F8E60
FF878F60
DFFFFF40
4DFFE800
ENDCHAR
STARTCHAR Gdotaccent
ENCODING 288
SWIDTH 578 0
DWIDTH 6 0
BBX 7 11 0 0
BITMAP
00230000
0AFFD200
2FDAF800
0FFFF400
8E578C10
ED9FFF50
FD9B6E60
FD8F8E60
FF878F60
DFFFFF40
4DFFE800
ENDCHAR
STARTCHAR gdotaccent
ENCODING 289
SWIDTH 578 0
DWIDTH 6 0
BBX 7 11 0 0
BITMAP
00230000
0AFFD200
2FDAF800
0FFFF400
8E578C10
ED9FFF50
FD9B6E60
FD8F8E60
FF878F60
DFFFFF40
4DFFE800
ENDCHAR
STARTCHAR Gcommaaccent
ENCODING 290
SWIDTH 578 0
DWIDTH 6 0
BBX 7 8 0 0
BITMAP
03554000
8E578C10
ED9FFF50
FD9B6E60
FD8F8E60
FF868F60
DFF5FF40
4DFDE800
ENDCHAR
STARTCHAR gcommaaccent
ENCODING 291
SWIDTH 578 0
DWIDTH 6 0
BBX 7 8 0 0
BITMAP
03554000
8E578C10
ED9FFF50
FD9B6E60
FD8F8E60
FF868F60
DFF5FF40
4DFDE800
ENDCHAR
STARTCHAR Hcircumflex
ENCODING 292
SWIDTH 578 0
DWIDTH 6 0
BBX 7 11 0 0
BITMAP
009D5000
03E7C000
08AAE300
09FFF200
8CBF9B10
ECAF8D50
FC474D60
FCAF8D60
FDCFBE60
DFFFFF40
4DFFE800
ENDCHAR
STARTCHAR hcircumflex
ENCODING 293
SWIDTH 578 0
DWIDTH 6 0
BBX 7 11 0 0
BITMAP
008D5000
02E7D000
08AAD300
09FFF300
8CBF9B10
ECAF8D50
FC474D60
FCAF8D60
FDCFBE60
DFFFFF40
4DFFE800
ENDCHAR
STARTCHAR Hbar
ENCODING 294
SWIDTH 578 0
DWIDTH 6 0
BBX 7 11 0 0
BITMAP
00130000
09FFE300
0F86D900
0CFFF400
8CBF9B10
ECAF8D50
FC474D60
FCAF8D60
FDCFBE60
DFFFFF40
4DFFE800
ENDCHAR
STARTCHAR hbar
ENCODING 295
SWIDTH 578 0
DWIDTH 6 0
BBX 7 8 0 0
BITMAP
03554000
8B9D8A10
EA7A6C50
FC474D60
FCAF8D60
FDCFBE60
DFFFFF40
4DFFE800
ENDCHAR
STARTCHAR Itilde
ENCODING 296
SWIDTH 578 0
DWIDTH 6 0
BBX 7 11 0 0
BITMAP
00585000
08FFF800
0CBBBC00
0BFFF800
8E747C10
EFF6FF50
FFF6FF60
FFF6FF60
FE777F60
DFFFFF40
4DFFE800
ENDCHAR
STARTCHAR itilde
ENCODING 297
SWIDTH 578 0
DWIDTH 6 0
BBX 7 11 0 0
BITMAP
00585000
09FFF700
0DABBC00
0BFFF800
8E747C10
EFF6FF50
FFF6FF60
FFF6FF60
FE777F60
DFFFFF40
4DFFE800
ENDCHAR
STARTCHAR Imacron
ENCODING 298
SWIDTH 578 0
DWIDTH 6 0
BBX 7 11 0 0
BITMAP
00131000
07FFE500
0D96CB00
0AFFF600
8E747C10
EFF6FF50
FFF6FF60
FFF6FF60
FE777F60
DFFFFF40
4DFFE800
ENDCHAR
STARTCHAR imacron
ENCODING 299
SWIDTH 578 0
DWIDTH 6 0
BBX 7 11 0 0
BITMAP
00131000
07FFE500
0E96CB00
0BFFF600
8E747C10
EFF6FF50
FFF6FF60
FFF6FF60
FE777F60
DFFFFF40
4DFFE800
ENDCHAR
STARTCHAR Ibreve
ENCODING 300
SWIDTH 578 0
DWIDTH 6 0
BBX 7 11 0 0
BITMAP
00131000
06FFF600
0CBCBC00
09FFF700
8E747C10
EFF6FF50
FFF6FF60
FFF6FF60
FE777F60
DFFFFF40
4DFFE800
ENDCHAR
STARTCHAR ibreve
ENCODING 301
SWIDTH 578 0
DWIDTH 6 0
BBX 7 11 0 0
BITMAP
00131000
06FFE500
0DBCBC00
0AFFF600
8E747C10
EFF6FF50
FFF6FF60
FFF6FF60
FE777F60
DFFFFF40
4DFFE800
ENDCHAR
STARTCHAR Iogonek
ENCODING 302
SWIDTH 578 0
DWIDTH 6 0
BBX 7 8 0 0
BITMAP
03554000
8E747C10
EFF6FF50
FFF6FF60
FFF6FF60
FE773F60
DFFE7F40
4DFFA800
ENDCHAR
STARTCHAR iogonek
ENCODING 303
SWIDTH 578 0
DWIDTH 6 0
BBX 7 8 0 0
BITMAP
03554000
8E747C10
EFF6FF50
FFF6FF60
FFF6FF60
FE773F60
DFFE7F40
4DFFA800
ENDCHAR
STARTCHAR Idotaccent
ENCODING 304
SWIDTH 578 0
DWIDTH 6 0
BBX 7 11 0 0
BITMAP
00130000
09FFE300
1FE8F900
0EFFF600
8E747C10
EFF6FF50
FFF6FF60
FFF6FF60
FE777F60
DFFFFF40
4DFFE800
ENDCHAR
STARTCHAR dotlessi
ENCODING 305
SWIDTH 578 0
DWIDTH 6 0
BBX 7 8 0 0
BITMAP
03554000
8E747C10
EFF6FF50
FFF6FF60
FFF6FF60
FE777F60
DFFFFF40
4DFFE800
ENDCHAR
STARTCHAR IJ
ENCODING 306
SWIDTH 578 0
DWIDTH 6 0
BBX 7 8 0 0
BITMAP
03554000
865DC810
ECAFCA50
FCAFCA60
FCAFBA60
F7797E60
DFFFFF40
4DFFE800
ENDCHAR
STARTCHAR ij
ENCODING 307
SWIDTH 578 0
DWIDTH 6 0
BBX 7 8 0 0
BITMAP
03554000
865DC810
ECAFCA50
FCAFCA60
FCAFBA60
F7797E60
DFFFFF40
4DFFE800
ENDCHAR
STARTCHAR Jcircumflex
ENCODING 308
SWIDTH 578 0
DWIDTH 6 0
BBX 7 11 0 0
BITMAP
008D5000
02E7D000
07ABD400
08FFF300
8FFBCC10
EFFACF50
FFFACF60
FFF9CF60
FFA7EF60
DFFFFF40
4DFFE800
ENDCHAR
STARTCHAR jcircumflex
ENCODING 309
SWIDTH 578 0
DWIDTH 6 0
BBX 7 11 0 0
BITMAP
008D5000
02E7D000
07ABD400
08FFF300
8FFBCC10
EFFACF50
FFFACF60
FFF9CF60
FFA7EF60
DFFFFF40
4DFFE800
ENDCHAR
STARTCHAR Kcommaaccent
ENCODING 310
SWIDTH 578 0
DWIDTH 6 0
BBX 7 8 0 0
BITMAP
03554000
8F7F7A10
EF67BF50
FF45FF60
FF6C6F60
FFAFBE60
DFF5FF40
4DFDE800
ENDCHAR
STARTCHAR kcommaaccent
ENCODING 311
SWIDTH 578 0
DWIDTH 6 0
BBX 7 8 0 0
BITMAP
03554000
8F7F7A10
EF67BF50
FF45FF60
FF6C6F60
FFAFBE60
DFF5FF40
4DFDE800
ENDCHAR
STARTCHAR kgreenlandic
ENCODING 312
SWIDTH 578 0
DWIDTH 6 0
BBX 7 8 0 0
BITMAP
03554000
8F7F7A10
EF67BF50
FF45FF60
FF6C6F60
FFAFBE60
DFFFFF40
4DFFE800
ENDCHAR
STARTCHAR Lacute
ENCODING 313
SWIDTH 578 0
DWIDTH 6 0
BBX 7 11 0 0
BITMAP
007A4000
03E9C000
07AD6000
07FF4000
8F7FFC10
EF6FFF50
FF6FFF60
FF6FFF60
FFA7AF60
DFFFFF40
4DFFE800
ENDCHAR
STARTCHAR lacute
ENCODING 314
SWIDTH 578 0
DWIDTH 6 0
BBX 7 11 0 0
BITMAP
007A4000
03E9C000
07AD6000
07FF4000
8F7FFC10
EF6FFF50
FF6FFF60
FF6FFF60
FFA7AF60
DFFFFF40
4DFFE800
ENDCHAR
STARTCHAR Lcommaaccent
ENCODING 315
SWIDTH 578 0
DWIDTH 6 0
BBX 7 8 0 0
BITMAP
03554000
8F7FFC10
EF6FFF50
FF6FFF60
FF6FFF60
FFA6AF60
DFF5FF40
4DFDE800
ENDCHAR
STARTCHAR lcommaaccent
ENCODING 316
SWIDTH 578 0
DWIDTH 6 0
BBX 7 8 0 0
BITMAP
03554000
8F7FFC10
EF6FFF50
FF6FFF60
FF6FFF60
FFA6AF60
DFF5FF40
4DFDE800
ENDCHAR
STARTCHAR Lcaron
ENCODING 317
SWIDTH 578 0
DWIDTH 6 0
BBX 7 8 0 0
BITMAP
03554000
8F7C8C10
EF6EDF50
FF6FFF60
FF6FFF60
FFA7AF60
DFFFFF40
4DFFE800
ENDCHAR
STARTCHAR lcaron
ENCODING 318
SWIDTH 578 0
DWIDTH 6 0
BBX 7 8 0 0
BITMAP
03554000
8F7C8C10
EF6EDF50
FF6FFF60
FF6FFF60
FFA7AF60
DFFFFF40
4DFFE800
ENDCHAR
STARTCHAR Ldot
ENCODING 319
SWIDTH 578 0
DWIDTH 6 0
BBX 7 8 0 0
BITMAP
03554000
8F7FFC10
EF6BEF50
FF6EFF60
FF6FFF60
FFA7AF60
DFFFFF40
4DFFE800
ENDCHAR
STARTCHAR ldot
ENCODING 320
SWIDTH 578 0
DWIDTH 6 0
BBX 7 8 0 0
BITMAP
03554000
8F7FFC10
EF6BEF50
FF6EFF60
FF6FFF60
FFA7AF60
DFFFFF40
4DFFE800
ENDCHAR
STARTCHAR Lslash
ENCODING 321
SWIDTH 578 0
DWIDTH 6 0
BBX 7 8 0 0
BITMAP
03554000
8F7FFC10
EF6CFF50
FE4FFF60
FF6FFF60
FFA7AF60
DFFFFF40
4DFFE800
ENDCHAR
STARTCHAR lslash
ENCODING 322
SWIDTH 578 0
DWIDTH 6 0
BBX 7 8 0 0
BITMAP
03554000
8F7FFC10
EF6CFF50
FE4FFF60
FF6FFF60
FFA7AF60
DFFFFF40
4DFFE800
ENDCHAR
STARTCHAR Nacute
ENCODING 323
SWIDTH 578 0
DWIDTH 6 0
BBX 7 11 0 0
BITMAP
003A8100
00B9F400
00F8D000
03FF8000
8C676C10
EBBF7F50
FBBF7F60
FBBF7F60
FDDFAF60
DFFFFF40
4DFFE800
ENDCHAR
STARTCHAR nacute
ENCODING 324
SWIDTH 578 0
DWIDTH 6 0
BBX 7 11 0 0
BITMAP
003A8100
00B9F400
00F8D000
03FF8000
8C676C10
EBBF7F50
FBBF7F60
FBBF7F60
FDDFAF60
DFFFFF40
4DFFE800
ENDCHAR
STARTCHAR Ncommaaccent
ENCODING 325
SWIDTH 578 0
DWIDTH 6 0
BBX 7 8 0 0
BITMAP
03554000
8C676C10
EBBF7F50
FBBF7F60
FBBF7F60
FDDFAF60
DFF5FF40
4DFDE800
ENDCHAR
STARTCHAR ncommaaccent
ENCODING 326
SWIDTH 578 0
DWIDTH 6 0
BBX 7 8 0 0
BITMAP
03554000
8C676C10
EBBF7F50
FBBF7F60
FBBF7F60
FDDFAF60
DFF5FF40
4DFDE800
ENDCHAR
STARTCHAR Ncaron
ENCODING 327
SWIDTH 578 0
DWIDTH 6 0
BBX 7 11 0 0
BITMAP
04877000
0BBBF200
09B9E000
06FFC000
8C676C10
EBBF7F50
FBBF7F60
FBBF7F60
FDDFAF60
DFFFFF40
4DFFE800
ENDCHAR
STARTCHAR ncaron
ENCODING 328
SWIDTH 578 0
DWIDTH 6 0
BBX 7 11 0 0
BITMAP
04877000
0BBBF200
09B9E000
06FFC000
8C676C10
EBBF7F50
FBBF7F60
FBBF7F60
FDDFAF60
DFFFFF40
4DFFE800
ENDCHAR
STARTCHAR napostrophe
ENCODING 329
SWIDTH 578 0
DWIDTH 6 0
BBX 7 8 0 0
BITMAP
03554000
6A676C10
B7BF7F50
FBBF7F60
FBBF7F60
FDDFAF60
DFFFFF40
4DFFE800
ENDCHAR
STARTCHAR Eng
ENCODING 330
SWIDTH 578 0
DWIDTH 6 0
BBX 7 8 0 0
BITMAP
03554000
8C676C10
EBBF7F50
FBBF7F60
FBBF7F60
FDDF7F60
DFFA4F40
4DFDD800
ENDCHAR
STARTCHAR eng
ENCODING 331
SWIDTH 578 0
DWIDTH 6 0
BBX 7 8 0 0
BITMAP
03554000
8C676C10
EBBF7F50
FBBF7F60
FBBF7F60
FDDF7F60
DFFA4F40
4DFDD800
ENDCHAR
STARTCHAR Omacron
ENCODING 332
SWIDTH 578 0
DWIDTH 6 0
BBX 7 11 0 0
BITMAP
00131000
07FFE500
0D96CB00
0BFFF600
8D575C10
EBAF8D50
FBAF8D60
FBAF8E60
FE778F60
DFFFFF40
4DFFE800
ENDCHAR
STARTCHAR omacron
ENCODING 333
SWIDTH 578 0
DWIDTH 6 0
BBX 7 11 0 0
BITMAP
00131000
07FFE500
0D96CB00
0BFFF600
8D575C10
EBAF8D50
FBAF8D60
FBAF8E60
FE778F60
DFFFFF40
4DFFE800
ENDCHAR
STARTCHAR Obreve
ENCODING 334
SWIDTH 578 0
DWIDTH 6 0
BBX 7 11 0 0
BITMAP
00131000
07FFE500
0DBBCB00
0BFFF600
8D575C10
EBAF8D50
FBAF8D60
FBAF8E60
FE778F60
DFFFFF40
4DFFE800
ENDCHAR
STARTCHAR obreve
ENCODING 335
SWIDTH 578 0
DWIDTH 6 0
BBX 7 11 0 0
BITMAP
00131000
07FFE500
0DBBCB00
0BFFF600
8D575C10
EBAF8D50
FBAF8D60
FBAF8E60
FE778F60
DFFFFF40
4DFFE800
ENDCHAR
STARTCHAR Ohungarumlaut
ENCODING 336
SWIDTH 578 0
DWIDTH 6 0
BBX 7 11 0 0
BITMAP
001BB900
009BCD30
02EBAD00
05FFF400
8D575C10
EBAF8D50
FBAF8D60
FBAF8E60
FE778F60
DFFFFF40
4DFFE800
ENDCHAR
STARTCHAR ohungarumlaut
ENCODING 337
SWIDTH 578 0
DWIDTH 6 0
BBX 7 11 0 0
BITMAP
001BB900
009BCD30
02EBAD00
05FFF400
8D575C10
EBAF8D50
FBAF8D60
FBAF8E60
FE778F60
DFFFFF40
4DFFE800
ENDCHAR
STARTCHAR OE
ENCODING 338
SWIDTH 578 0
DWIDTH 6 0
BBX 7 8 0 0
BITMAP
03554000
88747B10
E7F7FF50
F7F46F60
F6F6FF60
FA777D60
DFFFFF40
4DFFE800
ENDCHAR
STARTCHAR oe
ENCODING 339
SWIDTH 578 0
DWIDTH 6 0
BBX 7 8 0 0
BITMAP
03554000
88747B10
E7F7FF50
F7F46F60
F6F6FF60
FA777D60
DFFFFF40
4DFFE800
ENDCHAR
STARTCHAR Racute
ENCODING 340
SWIDTH 578 0
DWIDTH 6 0
BBX 7 11 0 0
BITMAP
003A8100
00B9F400
00F8D000
03FF8000
8D568C10
ED9F6F50
FD468F60
FD9F7F60
FEBFAF60
DFFFFF40
4DFFE800
ENDCHAR
STARTCHAR racute
ENCODING 341
SWIDTH 578 0
DWIDTH 6 0
BBX 7 11 0 0
BITMAP
003A8100
00B9F400
00F8D000
03FF8000
8D568C10
ED9F6F50
FD468F60
FD9F7F60
FEBFAF60
DFFFFF40
4DFFE800
ENDCHAR
STARTCHAR Rcommaaccent
ENCODING 342
SWIDTH 578 0
DWIDTH 6 0
BBX 7 8 0 0
BITMAP
03554000
8D568C10
ED9F6F50
FD468F60
FD9F7F60
FEBFAF60
DFF5FF40
4DFDE800
ENDCHAR
STARTCHAR rcommaaccent
ENCODING 343
SWIDTH 578 0
DWIDTH 6 0
BBX 7 8 0 0
BITMAP
03554000
8D568C10
ED9F6F50
FD468F60
FD9F7F60
FEBFAF60
DFF5FF40
4DFDE800
ENDCHAR
STARTCHAR Rcaron
ENCODING 344
SWIDTH 578 0
DWIDTH 6 0
BBX 7 11 0 0
BITMAP
04877000
0BBBF200
09B9E000
06FFC000
8D568C10
ED9F6F50
FD468F60
FD9F7F60
FEBFAF60
DFFFFF40
4DFFE800
ENDCHAR
STARTCHAR rcaron
ENCODING 345
SWIDTH 578 0
DWIDTH 6 0
BBX 7 11 0 0
BITMAP
04877000
0BBBF200
09B9E000
06FFC000
8D568C10
ED9F6F50
FD468F60
FD9F7F60
FEBFAF60
DFFFFF40
4DFFE800
ENDCHAR
STARTCHAR Sacute
ENCODING 346
SWIDTH 578 0
DWIDTH 6 0
BBX 7 11 0 0
BITMAP
00199200
007BD700
00C8F200
03EFB000
8E578C10
ED8FFF50
FF775F60
FFFF6F60
FF879F60
DFFFFF40
4DFFE800
ENDCHAR
STARTCHAR sacute
ENCODING 347
SWIDTH 578 0
DWIDTH 6 0
BBX 7 11 0 0
BITMAP
00199200
007BD700
00C8F200
03EFB000
8E578C10
ED8FFF50
FF775F60
FFFF6F60
FF879F60
DFFFFF40
4DFFE800
ENDCHAR
STARTCHAR Scircumflex
ENCODING 348
SWIDTH 578 0
DWIDTH 6 0
BBX 7 11 0 0
BITMAP
007D7000
01E6E100
06BBB600
07FFF400
8E578C10
ED8FFF50
FF775F60
FFFF6F60
FF879F60
DFFFFF40
4DFFE800
ENDCHAR
STARTCHAR scircumflex
ENCODING 349
SWIDTH 578 0
DWIDTH 6 0
BBX 7 11 0 0
BITMAP
007D7000
01E6E100
06BBB600
07FFF400
8E578C10
ED8FFF50
FF775F60
FFFF6F60
FF879F60
DFFFFF40
4DFFE800
ENDCHAR
STARTCHAR Scedilla
ENCODING 350
SWIDTH 578 0
DWIDTH 6 0
BBX 7 8 0 0
BITMAP
03554000
8E578C10
ED8FFF50
FF775F60
FFFF6F60
FF739F60
DF99FF40
4DECE800
ENDCHAR
STARTCHAR scedilla
ENCODING 351
SWIDTH 578 0
DWIDTH 6 0
BBX 7 8 0 0
BITMAP
03554000
8E578C10
ED8FFF50
FF775F60
FFFF6F60
FF739F60
DF99FF40
4DECE800
ENDCHAR
STARTCHAR Scaron
ENCODING 352
SWIDTH 578 0
DWIDTH 6 0
BBX 7 11 0 0
BITMAP
01878200
06CDC700
03F6E500
03FFF100
8E578C10
ED8FFF50
FF775F60
FFFF6F60
FF879F60
DFFFFF40
4DFFE800
ENDCHAR
STARTCHAR scaron
ENCODING 353
SWIDTH 578 0
DWIDTH 6 0
BBX 7 11 0 0
BITMAP
01878200
06CDC700
03F6E500
03FFF100
8E578C10
ED8FFF50
FF775F60
FFFF6F60
FF879F60
DFFFFF40
4DFFE800
ENDCHAR
STARTCHAR Tcommaaccent
ENCODING 354
SWIDTH 578 0
DWIDTH 6 0
BBX 7 8 0 0
BITMAP
03554000
8E747C10
EFF6FF50
FFF6FF60
FFF6FF60
FFFAFF60
DFF5FF40
4DFDE800
ENDCHAR
STARTCHAR tcommaaccent
ENCODING 355
SWIDTH 578 0
DWIDTH 6 0
BBX 7 8 0 0
BITMAP
03554000
8E747C10
EFF6FF50
FFF6FF60
FFF6FF60
FFFAFF60
DFF5FF40
4DFDE800
ENDCHAR
STARTCHAR Tcaron
ENCODING 356
SWIDTH 578 0
DWIDTH 6 0
BBX 7 11 0 0
BITMAP
02878100
08BDD500
06D6F200
04FFE000
8E747C10
EFF6FF50
FFF6FF60
FFF6FF60
FFFAFF60
DFFFFF40
4DFFE800
ENDCHAR
STARTCHAR tcaron
ENCODING 357
SWIDTH 578 0
DWIDTH 6 0
BBX 7 8 0 0
BITMAP
03554000
8E747C10
EFF65F50
FFF6DF60
FFF6FF60
FFFAFF60
DFFFFF40
4DFFE800
ENDCHAR
STARTCHAR Tbar
ENCODING 358
SWIDTH 578 0
DWIDTH 6 0
BBX 7 8 0 0
BITMAP
03554000
8E747C10
EFF6FF50
FFB3CF60
FFF6FF60
FFFAFF60
DFFFFF40
4DFFE800
ENDCHAR
STARTCHAR tbar
ENCODING 359
SWIDTH 578 0
DWIDTH 6 0
BBX 7 8 0 0
BITMAP
03554000
8E747C10
EFF6FF50
FFB3CF60
FFF6FF60
FFFAFF60
DFFFFF40
4DFFE800
ENDCHAR
STARTCHAR Utilde
ENCODING 360
SWIDTH 578 0
DWIDTH 6 0
BBX 7 11 0 0
BITMAP
00584000
09FFF700
0DABBC00
0CFFF800
8BBF9B10
EBBF8E50
FBBF8E60
FBAF7E60
FE778F60
DFFFFF40
4DFFE800
ENDCHAR
STARTCHAR utilde
ENCODING 361
SWIDTH 578 0
DWIDTH 6 0
BBX 7 11 0 0
BITMAP
00585000
09FFF700
0DABBC00
0BFFF800
8BBF9B10
EBBF8E50
FBBF8E60
FBAF7E60
FE778F60
DFFFFF40
4DFFE800
ENDCHAR
STARTCHAR Umacron
ENCODING 362
SWIDTH 578 0
DWIDTH 6 0
BBX 7 11 0 0
BITMAP
00131000
07FFE500
0D96CB00
0AFFF600
8BBF9B10
EBBF8E50
FBBF8E60
FBAF7E60
FE778F60
DFFFFF40
4DFFE800
ENDCHAR
STARTCHAR umacron
ENCODING 363
SWIDTH 578 0
DWIDTH 6 0
BBX 7 11 0 0
BITMAP
00131000
07FFE500
0D96CB00
0AFFF600
8BBF9B10
EBBF8E50
FBBF8E60
FBAF7E60
FE778F60
DFFFFF40
4DFFE800
ENDCHAR
STARTCHAR Ubreve
ENCODING 364
SWIDTH 578 0
DWIDTH 6 0
BBX 7 11 0 0
BITMAP
00131000
07FFE500
0DBCBB00
0AFFF600
8BBF9B10
EBBF8E50
FBBF8E60
FBAF7E60
FE778F60
DFFFFF40
4DFFE800
ENDCHAR
STARTCHAR ubreve
ENCODING 365
SWIDTH 578 0
DWIDTH 6 0
BBX 7 11 0 0
BITMAP
00131000
06FFE500
0DBCBC00
0AFFF600
8BBF9B10
EBBF8E50
FBBF8E60
FBAF7E60
FE778F60
DFFFFF40
4DFFE800
ENDCHAR
STARTCHAR Uring
ENCODING 366
SWIDTH 578 0
DWIDTH 6 0
BBX 7 11 0 0
BITMAP
00362000
04D9D200
099BB600
09FFF400
8BBF9B10
EBBF8E50
FBBF8E60
FBAF7E60
FE778F60
DFFFFF40
4DFFE800
ENDCHAR
STARTCHAR uring
ENCODING 367
SWIDTH 578 0
DWIDTH 6 0
BBX 7 11 0 0
BITMAP
00362000
04D9D200
099BB600
09FFF400
8BBF9B10
EBBF8E50
FBBF8E60
FBAF7E60
FE778F60
DFFFFF40
4DFFE800
ENDCHAR
STARTCHAR Uhungarumlaut
ENCODING 368
SWIDTH 581 0
DWIDTH 6 0
BBX 7 11 0 0
BITMAP
001BB900
009BCC30
02EAAD10
05FFF400
8BBF9B10
EBBF8E50
FBBF8E60
FBAF7E60
FE778F60
DFFFFF40
4DFFE800
ENDCHAR
STARTCHAR uhungarumlaut
ENCODING 369
SWIDTH 582 0
DWIDTH 6 0
BBX 7 11 0 0
BITMAP
001BBA00
008BCC40
02EAAD10
05FFF400
8BBF9B10
EBBF8E50
FBBF8E60
FBAF7E60
FE778F60
DFFFFF40
4DFFE800
ENDCHAR
STARTCHAR Uogonek
ENCODING 370
SWIDTH 578 0
DWIDTH 6 0
BBX 7 8 0 0
BITMAP
03554000
8BBF9B10
EBBF8E50
FBBF8E60
FBAF7E60
FE738F60
DFE6FF40
4DFCD800
ENDCHAR
STARTCHAR uogonek
ENCODING 371
SWIDTH 578 0
DWIDTH 6 0
BBX 7 8 0 0
BITMAP
03554000
8BBF9B10
EBBF8E50
FBBF8E60
FBAF7E60
FE738F60
DFE6FF40
4DFCD800
ENDCHAR
STARTCHAR Wcircumflex
ENCODING 372
SWIDTH 578 0
DWIDTH 6 0
BBX 7 11 0 0
BITMAP
009D4000
03E8C000
08AAE300
09FFF200
87F8C710
E6D3BA50
F6A49C60
F8686D60
FD8D8F60
DFFFFF40
4DFFE800
ENDCHAR
STARTCHAR wcircumflex
ENCODING 373
SWIDTH 578 0
DWIDTH 6 0
BBX 7 11 0 0
BITMAP
009D4000
03E8C000
08AAE300
09FFF200
87F8C710
E6D3BA50
F6A49C60
F8686D60
FD8D8F60
DFFFFF40
4DFFE800
ENDCHAR
STARTCHAR Ycircumflex
ENCODING 374
SWIDTH 578 0
DWIDTH 6 0
BBX 7 11 0 0
BITMAP
008D6000
02E7E000
07ABD400
08FFF300
8E7F6C10
EF6C8F50
FFC2EF60
FFF6FF60
FFFAFF60
DFFFFF40
4DFFE800
ENDCHAR
STARTCHAR ycircumflex
ENCODING 375
SWIDTH 578 0
DWIDTH 6 0
BBX 7 11 0 0
BITMAP
008D6000
02E7E000
07ABD400
08FFF300
8E7F6C10
EF6C8F50
FFC2EF60
FFF6FF60
FFFAFF60
DFFFFF40
4DFFE800
ENDCHAR
STARTCHAR Ydieresis
ENCODING 376
SWIDTH 578 0
DWIDTH 6 0
BBX 7 11 0 0
BITMAP
00020000
04EFE300
0A8CA800
07FFF300
8E7F6C10
EF6C8F50
FFC2EF60
FFF6FF60
FFFAFF60
DFFFFF40
4DFFE800
ENDCHAR
STARTCHAR Zacute
ENCODING 377
SWIDTH 578 0
DWIDTH 6 0
BBX 7 11 0 0
BITMAP
005A6000
00E8F100
03EAA000
05FF6000
8F768C10
EFF7DF50
FFD7FF60
FF6EFF60
FF879F60
DFFFFF40
4DFFE800
ENDCHAR
STARTCHAR zacute
ENCODING 378
SWIDTH 578 0
DWIDTH 6 0
BBX 7 11 0 0
BITMAP
005A6000
00E8F100
03EAA000
05FF6000
8F768C10
EFF7DF50
FFD7FF60
FF6EFF60
FF879F60
DFFFFF40
4DFFE800
ENDCHAR
STARTCHAR Zdotaccent
ENCODING 379
SWIDTH 578 0
DWIDTH 6 0
BBX 7 11 0 0
BITMAP
00230000
0AFFD200
2FDAF800
0FFFF400
8F768C10
EFF7DF50
FFD7FF60
FF6EFF60
FF879F60
DFFFFF40
4DFFE800
ENDCHAR
STARTCHAR zdotaccent
ENCODING 380
SWIDTH 578 0
DWIDTH 6 0
BBX 7 11 0 0
BITMAP
00230000
0AFFD200
2FDAF800
0FFFF400
8F768C10
EFF7DF50
FFD7FF60
FF6EFF60
FF879F60
DFFFFF40
4DFFE800
ENDCHAR
STARTCHAR Zcaron
ENCODING 381
SWIDTH 578 0
DWIDTH 6 0
BBX 7 11 0 0
BITMAP
03878000
0ABCE300
07C8F100
05FFD000
8F768C10
EFF7DF50
FFD7FF60
FF6EFF60
FF879F60
DFFFFF40
4DFFE800
ENDCHAR
STARTCHAR zcaron
ENCODING 382
SWIDTH 578 0
DWIDTH 6 0
BBX 7 11 0 0
BITMAP
03878000
0ABCE300
07C8F100
05FFD000
8F768C10
EFF7DF50
FFD7FF60
FF6EFF60
FF879F60
DFFFFF40
4DFFE800
ENDCHAR
STARTCHAR longs
ENCODING 383
SWIDTH 578 0
DWIDTH 6 0
BBX 7 8 0 0
BITMAP
03554000
8FA8DC10
ECBF8F50
FBDA9F60
FFB9BF60
FFFEFF60
DFFFFF40
4DFFE800
ENDCHAR
STARTCHAR florin
ENCODING 402
SWIDTH 578 0
DWIDTH 6 0
BBX 7 8 0 0
BITMAP
03554000
8FD6DC10
EFABFF50
FF66FF60
FFABFF60
FFABFF60
DE7EFF40
4DFFE800
ENDCHAR
STARTCHAR uni01CD
ENCODING 461
SWIDTH 578 0
DWIDTH 6 0
BBX 7 11 0 0
BITMAP
02878100
09BDD500
06D6F200
04FFE000
8F668C10
EE7F6F50
FC474F60
FAAF6F60
FCDFBE60
DFFFFF40
4DFFE800
ENDCHAR
STARTCHAR uni01CE
ENCODING 462
SWIDTH 578 0
DWIDTH 6 0
BBX 7 11 0 0
BITMAP
02878100
07CDC600
04E6F400
03FFF100
8F678C10
EFFF7F50
FC666F60
F9CF7F60
FD77AF60
DFFFFF40
4DFFE800
ENDCHAR
STARTCHAR uni01CF
ENCODING 463
SWIDTH 578 0
DWIDTH 6 0
BBX 7 11 0 0
BITMAP
01878200
06CDC700
04E6E500
03FFF100
8E747C10
EFF6FF50
FFF6FF60
FFF6FF60
FE777F60
DFFFFF40
4DFFE800
ENDCHAR
STARTCHAR uni01D0
ENCODING 464
SWIDTH 578 0
DWIDTH 6 0
BBX 7 11 0 0
BITMAP
01878100
07CDC700
04E6E400
03FFF100
8E747C10
EFF6FF50
FFF6FF60
FFF6FF60
FE777F60
DFFFFF40
4DFFE800
ENDCHAR
STARTCHAR uni01D1
ENCODING 465
SWIDTH 578 0
DWIDTH 6 0
BBX 7 11 0 0
BITMAP
02878100
07BDC600
05E6F300
03FFF100
8D575C10
EBAF8D50
FBAF8D60
FBAF8E60
FE778F60
DFFFFF40
4DFFE800
ENDCHAR
STARTCHAR uni01D3
ENCODING 467
SWIDTH 578 0
DWIDTH 6 0
BBX 7 11 0 0
BITMAP
02878100
07CDC600
04E6F400
03FFF100
8BBF9B10
EBBF8E50
FBBF8E60
FBAF7E60
FE778F60
DFFFFF40
4DFFE800
ENDCHAR
STARTCHAR uni01D4
ENCODING 468
SWIDTH 578 0
DWIDTH 6 0
BBX 7 11 0 0
BITMAP
01878100
07CDC700
04E6E400
03FFF100
8BBF9B10
EBBF8E50
FBBF8E60
FBAF7E60
FE778F60
DFFFFF40
4DFFE800
ENDCHAR
STARTCHAR uni0200
ENCODING 512
SWIDTH 578 0
DWIDTH 6 0
BBX 7 11 0 0
BITMAP
0BBA0000
5BCC7000
2EAAE100
08FFF100
8F668C10
EE7F6F50
FC474F60
FAAF6F60
FCDFBE60
DFFFFF40
4DFFE800
ENDCHAR
STARTCHAR uni0201
ENCODING 513
SWIDTH 578 0
DWIDTH 6 0
BBX 7 11 0 0
BITMAP
0BBA0000
5BCC7000
2EAAE100
08FFF100
8F678C10
EFFF7F50
FC666F60
F9CF7F60
FD77AF60
DFFFFF40
4DFFE800
ENDCHAR
STARTCHAR uni0202
ENCODING 514
SWIDTH 578 0
DWIDTH 6 0
BBX 7 11 0 0
BITMAP
00120000
08FFE400
0EA7DA00
0CFFF500
8F678C10
EE7F6F50
FC474F60
FAAF6F60
FCDFBE60
DFFFFF40
4DFFE800
ENDCHAR
STARTCHAR uni0203
ENCODING 515
SWIDTH 578 0
DWIDTH 6 0
BBX 7 11 0 0
BITMAP
00120000
08FFE400
0EA7DA00
0CFFF500
8F778C10
EFFF7F50
FC666F60
F9CF7F60
FD77AF60
DFFFFF40
4DFFE800
ENDCHAR
STARTCHAR uni0204
ENCODING 516
SWIDTH 578 0
DWIDTH 6 0
BBX 7 11 0 0
BITMAP
0BBA0000
5BCC7000
2EAAE100
08FFF100
8F578C10
EF7FFF50
FF46BF60
FF7FFF60
FF878F60
DFFFFF40
4DFFE800
ENDCHAR
STARTCHAR uni0205
ENCODING 517
SWIDTH 578 0
DWIDTH 6 0
BBX 7 11 0 0
BITMAP
0BBA0000
5BCC7000
2EAAE100
08FFF100
8C678C10
E99C6F50
F98ABF60
FA9CDF60
FE99CF60
DFFFFF40
4DFFE800
ENDCHAR
STARTCHAR uni0206
ENCODING 518
SWIDTH 578 0
DWIDTH 6 0
BBX 7 11 0 0
BITMAP
00120000
08FFE400
0EA7DA00
0CFFF500
8F579C10
EF7FFF50
FF46BF60
FF7FFF60
FF878F60
DFFFFF40
4DFFE800
ENDCHAR
STARTCHAR uni0207
ENCODING 519
SWIDTH 578 0
DWIDTH 6 0
BBX 7 11 0 0
BITMAP
00120000
08FFE400
0EA7DA00
0CFFF500
8C678C10
E99C6F50
F98ABF60
FA9CDF60
FE99CF60
DFFFFF40
4DFFE800
ENDCHAR
STARTCHAR uni0208
ENCODING 520
SWIDTH 578 0
DWIDTH 6 0
BBX 7 11 0 0
BITMAP
0BBA0000
5BCC7000
2EAAE100
08FFF100
8E747C10
EFF6FF50
FFF6FF60
FFF6FF60
FE777F60
DFFFFF40
4DFFE800
ENDCHAR
STARTCHAR uni0209
ENCODING 521
SWIDTH 578 0
DWIDTH 6 0
BBX 7 11 0 0
BITMAP
0BBA0000
5BCC7000
2EAAE100
08FFF100
8E747C10
EFF6FF50
FFF6FF60
FFF6FF60
FE777F60
DFFFFF40
4DFFE800
ENDCHAR
STARTCHAR uni020A
ENCODING 522
SWIDTH 578 0
DWIDTH 6 0
BBX 7 11 0 0
BITMAP
00120000
08FFE400
0EA7DA00
0CFFF500
8E747C10
EFF6FF50
FFF6FF60
FFF6FF60
FE777F60
DFFFFF40
4DFFE800
ENDCHAR
STARTCHAR uni020B
ENCODING 523
SWIDTH 578 0
DWIDTH 6 0
BBX 7 11 0 0
BITMAP
00120000
08FFE400
0EA7DA00
0CFFF500
8E747C10
EFF6FF50
FFF6FF60
FFF6FF60
FE777F60
DFFFFF40
4DFFE800
ENDCHAR
STARTCHAR uni020C
ENCODING 524
SWIDTH 578 0
DWIDTH 6 0
BBX 7 11 0 0
BITMAP
0BBA0000
5BCC7000
2EAAE100
08FFF100
8D575C10
EBAF8D50
FBAF8D60
FBAF8E60
FE778F60
DFFFFF40
4DFFE800
ENDCHAR
STARTCHAR uni020D
ENCODING 525
SWIDTH 578 0
DWIDTH 6 0
BBX 7 11 0 0
BITMAP
0BBA0000
5BCC7000
2EAAE100
08FFF100
8D575C10
EBAF8D50
FBAF8D60
FBAF8E60
FE778F60
DFFFFF40
4DFFE800
ENDCHAR
STARTCHAR uni020E
ENCODING 526
SWIDTH 578 0
DWIDTH 6 0
BBX 7 11 0 0
BITMAP
00120000
08FFE400
0EA7DA00
0CFFF500
8D676C10
EBAF8D50
FBAF8D60
FBAF8E60
FE778F60
DFFFFF40
4DFFE800
ENDCHAR
STARTCHAR uni020F
ENCODING 527
SWIDTH 578 0
DWIDTH 6 0
BBX 7 11 0 0
BITMAP
00120000
08FFE400
0EA7DA00
0CFFF500
8D676C10
EBAF8D50
FBAF8D60
FBAF8E60
FE778F60
DFFFFF40
4DFFE800
ENDCHAR
STARTCHAR uni0210
ENCODING 528
SWIDTH 578 0
DWIDTH 6 0
BBX 7 11 0 0
BITMAP
0BBA0000
5BCC7000
2EAAE100
08FFF100
8D568C10
ED9F6F50
FD468F60
FD9F7F60
FEBFAF60
DFFFFF40
4DFFE800
ENDCHAR
STARTCHAR uni0211
ENCODING 529
SWIDTH 578 0
DWIDTH 6 0
BBX 7 11 0 0
BITMAP
0BBA0000
5BCC7000
2EAAE100
08FFF100
8D568C10
ED9F6F50
FD468F60
FD9F7F60
FEBFAF60
DFFFFF40
4DFFE800
ENDCHAR
STARTCHAR uni0212
ENCODING 530
SWIDTH 578 0
DWIDTH 6 0
BBX 7 11 0 0
BITMAP
00120000
08FFE400
0EA7DA00
0CFFF500
8D578C10
ED9F6F50
FD468F60
FD9F7F60
FEBFAF60
DFFFFF40
4DFFE800
ENDCHAR
STARTCHAR uni0213
ENCODING 531
SWIDTH 578 0
DWIDTH 6 0
BBX 7 11 0 0
BITMAP
00120000
08FFE400
0EA7DA00
0CFFF500
8D578C10
ED9F6F50
FD468F60
FD9F7F60
FEBFAF60
DFFFFF40
4DFFE800
ENDCHAR
STARTCHAR uni0214
ENCODING 532
SWIDTH 578 0
DWIDTH 6 0
BBX 7 11 0 0
BITMAP
0BBA0000
5BCC7000
2EAAE100
08FFF100
8BBF9B10
EBBF8E50
FBBF8E60
FBAF7E60
FE778F60
DFFFFF40
4DFFE800
ENDCHAR
STARTCHAR uni0215
ENCODING 533
SWIDTH 578 0
DWIDTH 6 0
BBX 7 11 0 0
BITMAP
0BBA0000
5BCC7000
2EAAE100
08FFF100
8BBF9B10
EBBF8E50
FBBF8E60
FBAF7E60
FE778F60
DFFFFF40
4DFFE800
ENDCHAR
STARTCHAR uni0216
ENCODING 534
SWIDTH 578 0
DWIDTH 6 0
BBX 7 11 0 0
BITMAP
00120000
08FFE400
0EA7DA00
0CFFF500
8BCF9B10
EBBF8E50
FBBF8E60
FBAF7E60
FE778F60
DFFFFF40
4DFFE800
ENDCHAR
STARTCHAR uni0217
ENCODING 535
SWIDTH 578 0
DWIDTH 6 0
BBX 7 11 0 0
BITMAP
00120000
08FFE400
0EA7DA00
0CFFF500
8BCF9B10
EBBF8E50
FBBF8E60
FBAF7E60
FE778F60
DFFFFF40
4DFFE800
ENDCHAR
STARTCHAR uni0218
ENCODING 536
SWIDTH 578 0
DWIDTH 6 0
BBX 7 8 0 0
BITMAP
03554000
8E578C10
ED8FFF50
FF775F60
FFFF6F60
FF869F60
DFF5FF40
4DFDE800
ENDCHAR
STARTCHAR uni0219
ENCODING 537
SWIDTH 578 0
DWIDTH 6 0
BBX 7 8 0 0
BITMAP
03554000
8E578C10
ED8FFF50
FF775F60
FFFF6F60
FF869F60
DFF5FF40
4DFDE800
ENDCHAR
STARTCHAR uni021A
ENCODING 538
SWIDTH 578 0
DWIDTH 6 0
BBX 7 8 0 0
BITMAP
03554000
8E747C10
EFF6FF50
FFF6FF60
FFF6FF60
FFFAFF60
DFF5FF40
4DFDE800
ENDCHAR
STARTCHAR uni021B
ENCODING 539
SWIDTH 578 0
DWIDTH 6 0
BBX 7 8 0 0
BITMAP
03554000
8E747C10
EFF6FF50
FFF6FF60
FFF6FF60
FFFAFF60
DFF5FF40
4DFDE800
ENDCHAR
STARTCHAR circumflex
ENCODING 710
SWIDTH 355 0
DWIDTH 4 0
BBX 4 4 0 0
BITMAP
2CC1
8AB7
E99D
BCC9
ENDCHAR
STARTCHAR caron
ENCODING 711
SWIDTH 355 0
DWIDTH 4 0
BBX 4 4 0 0
BITMAP
5785
FBBE
CAAB
6BB5
ENDCHAR
STARTCHAR breve
ENCODING 728
SWIDTH 428 0
DWIDTH 5 0
BBX 5 4 0 0
BITMAP
013100
8FFE40
EABCA0
9EBE50
ENDCHAR
STARTCHAR dotaccent
ENCODING 729
SWIDTH 428 0
DWIDTH 5 0
BBX 5 4 0 0
BITMAP
013100
8FFE40
FF8FA0
BEEE60
ENDCHAR
STARTCHAR ring
ENCODING 730
SWIDTH 368 0
DWIDTH 4 0
BBX 4 4 0 0
BITMAP
0550
ABAA
F87F
CDCD
ENDCHAR
STARTCHAR ogonek
ENCODING 731
SWIDTH 101 0
DWIDTH 1 0
BBX 2 2 0 -2
BITMAP
80
71
ENDCHAR
STARTCHAR tilde
ENCODING 732
SWIDTH 428 0
DWIDTH 5 0
BBX 5 4 0 0
BITMAP
067400
AFFF60
EABBA0
ACBD60
ENDCHAR
STARTCHAR hungarumlaut
ENCODING 733
SWIDTH 419 0
DWIDTH 5 0
BBX 5 4 0 0
BITMAP
09BB10
5DCA70
DAAE30
BCC600
ENDCHAR
STARTCHAR uni030F
ENCODING 783
SWIDTH 419 0
DWIDTH 5 0
BBX 5 4 0 0
BITMAP
5BC400
DAAE10
8CCB70
0BCC70
ENDCHAR
STARTCHAR mu
ENCODING 956
SWIDTH 578 0
DWIDTH 6 0
BBX 7 8 0 0
BITMAP
03554000
8BBF9B10
EBBF8E50
FBBF8E60
FBBF7E60
FB578F60
DFFFFF40
4DFFE800
ENDCHAR
STARTCHAR pi
ENCODING 960
SWIDTH 578 0
DWIDTH 6 0
BBX 7 8 0 0
BITMAP
03554000
8D999C10
E989B950
CC79A960
EA9F9960
FBAB9D60
DFEDFF40
4DFFE800
ENDCHAR
STARTCHAR uni1E60
ENCODING 7776
SWIDTH 578 0
DWIDTH 6 0
BBX 7 11 0 0
BITMAP
00131000
06FFF600
0CF8FD00
0BFFF900
8E578C10
ED8FFF50
FF775F60
FFFF6F60
FF879F60
DFFFFF40
4DFFE800
ENDCHAR
STARTCHAR uni1E8E
ENCODING 7822
SWIDTH 578 0
DWIDTH 6 0
BBX 7 11 0 0
BITMAP
00131000
07FFE500
0DF8FB00
0CFFF800
8E7F6C10
EF6C8F50
FFC2EF60
FFF6FF60
FFFAFF60
DFFFFF40
4DFFE800
ENDCHAR
STARTCHAR uni1E8F
ENCODING 7823
SWIDTH 578 0
DWIDTH 6 0
BBX 7 11 0 0
BITMAP
00131000
07FFE500
0DF8FB00
0CFFF800
8E7F6C10
EF6C8F50
FFC2EF60
FFF6FF60
FFFAFF60
DFFFFF40
4DFFE800
ENDCHAR
STARTCHAR uni1EBC
ENCODING 7868
SWIDTH 578 0
DWIDTH 6 0
BBX 7 11 0 0
BITMAP
00584000
09FFF700
0DABBC00
0CFFF800
8F578C10
EF7FFF50
FF46BF60
FF7FFF60
FF878F60
DFFFFF40
4DFFE800
ENDCHAR
STARTCHAR uni1EF8
ENCODING 7928
SWIDTH 578 0
DWIDTH 6 0
BBX 7 11 0 0
BITMAP
00584000
09FFF700
0DABBB00
0CFFF700
8E7F6C10
EF6C8F50
FFC2EF60
FFF6FF60
FFFAFF60
DFFFFF40
4DFFE800
ENDCHAR
STARTCHAR uni1EF9
ENCODING 7929
SWIDTH 578 0
DWIDTH 6 0
BBX 7 11 0 0
BITMAP
00584000
09FFF700
0DABBB00
0CFFF700
8E7F6C10
EF6C8F50
FFC2EF60
FFF6FF60
FFFAFF60
DFFFFF40
4DFFE800
ENDCHAR
STARTCHAR endash
ENCODING 8211
SWIDTH 428 0
DWIDTH 5 0
BBX 5 8 0 0
BITMAP
035200
8FFF40
EA7CA0
FEEFB0
FFFFB0
FFFFB0
DFFF90
4DEB10
ENDCHAR
STARTCHAR emdash
ENCODING 8212
SWIDTH 428 0
DWIDTH 5 0
BBX 5 8 0 0
BITMAP
035100
8FFF40
777750
EEEEA0
FFFFB0
FFFFB0
DFFF90
4DEB10
ENDCHAR
STARTCHAR quoteleft
ENCODING 8216
SWIDTH 428 0
DWIDTH 5 0
BBX 5 8 0 0
BITMAP
035200
8F9F40
EF9FA0
FFFFB0
FFFFB0
FFFFB0
DFFF90
4DEB10
ENDCHAR
STARTCHAR quoteright
ENCODING 8217
SWIDTH 428 0
DWIDTH 5 0
BBX 5 8 0 0
BITMAP
035200
8F5F40
EFCFA0
FFFFB0
FFFFB0
FFFFB0
DFFF90
4DEB10
ENDCHAR
STARTCHAR quotesinglbase
ENCODING 8218
SWIDTH 428 0
DWIDTH 5 0
BBX 5 8 0 0
BITMAP
035200
8FFF40
EFFFA0
FFFFB0
FFEFB0
FF5FB0
DFEF90
4DEB10
ENDCHAR
STARTCHAR quotedblleft
ENCODING 8220
SWIDTH 428 0
DWIDTH 5 0
BBX 5 8 0 0
BITMAP
035200
8A9D40
EB9DA0
FFFFB0
FFFFB0
FFFFB0
DFFF90
4DEB10
ENDCHAR
STARTCHAR quotedblright
ENCODING 8221
SWIDTH 428 0
DWIDTH 5 0
BBX 5 8 0 0
BITMAP
035200
8A5A40
EECEA0
FFFFB0
FFFFB0
FFFFB0
DFFF90
4DEB10
ENDCHAR
STARTCHAR quotedblbase
ENCODING 8222
SWIDTH 428 0
DWIDTH 5 0
BBX 5 8 0 0
BITMAP
035200
8FFF40
EFFFA0
FFFFB0
FEDEB0
FA5AB0
DEEF90
4DEB10
ENDCHAR
STARTCHAR dagger
ENCODING 8224
SWIDTH 578 0
DWIDTH 6 0
BBX 7 8 0 0
BITMAP
03554000
8FF7FC10
EFA3BF50
FFF6FF60
FFF6FF60
FFFAFF60
DFFFFF40
4DFFE800
ENDCHAR
STARTCHAR daggerdbl
ENCODING 8225
SWIDTH 578 0
DWIDTH 6 0
BBX 7 8 0 0
BITMAP
03554000
8FF7FC10
EFA3BF50
FFF6FF60
FFB3BF60
FFFAFF60
DFFFFF40
4DFFE800
ENDCHAR
STARTCHAR bullet
ENCODING 8226
SWIDTH 578 0
DWIDTH 6 0
BBX 7 8 0 0
BITMAP
03554000
8FB9DC10
EC001F50
FB000F60
FC001F60
FFBADF60
DFFFFF40
4DFFE800
ENDCHAR
STARTCHAR ellipsis
ENCODING 8230
SWIDTH 578 0
DWIDTH 6 0
BBX 7 8 0 0
BITMAP
03554000
8FFFFC10
EFFFFF50
FFFFFF60
FEEEEF60
FACB9F60
DFFFFF40
4DFFE800
ENDCHAR
STARTCHAR perthousand
ENCODING 8240
SWIDTH 640 0
DWIDTH 7 0
BBX 8 8 0 0
BITMAP
03555300
57CCFF90
665DFFF0
ED6ACAB1
FE755451
FEEBDCC1
DFFFFFE0
4DFFFD40
ENDCHAR
STARTCHAR guilsinglleft
ENCODING 8249
SWIDTH 578 0
DWIDTH 6 0
BBX 7 8 0 0
BITMAP
03554000
8FFEEC10
EFF7FF50
FF9DFF60
FFD8FF60
FFFBDF60
DFFFFF40
4DFFE800
ENDCHAR
STARTCHAR guilsinglright
ENCODING 8250
SWIDTH 578 0
DWIDTH 6 0
BBX 7 8 0 0
BITMAP
03554000
8FDFFC10
EFD8FF50
FFF9DF60
FFF7FF60
FFBDFF60
DFFFFF40
4DFFE800
ENDCHAR
STARTCHAR fraction
ENCODING 8260
SWIDTH 428 0
DWIDTH 5 0
BBX 5 8 0 0
BITMAP
035200
8F7F40
EF6FA0
FF6FB0
FD8FB0
FDCFB0
DFFF90
4DEB10
ENDCHAR
STARTCHAR Euro
ENCODING 8364
SWIDTH 578 0
DWIDTH 6 0
BBX 7 8 0 0
BITMAP
03554000
8D57BC10
E66BFF50
F66BFF60
FAAFFF60
FE77BF60
DFFFFF40
4DFFE800
ENDCHAR
STARTCHAR trademark
ENCODING 8482
SWIDTH 578 0
DWIDTH 6 0
BBX 7 8 0 0
BITMAP
03554000
8FFFFC10
EEEFEF50
FC746F60
FFC9CF60
FFFFFF60
DFFFFF40
4DFFE800
ENDCHAR
STARTCHAR product
ENCODING 8719
SWIDTH 578 0
DWIDTH 6 0
BBX 7 8 0 0
BITMAP
03554000
8D9A9C10
E9999950
CC8B9960
EA9DE960
FB8B9D60
DFEDFF40
4DFFE800
ENDCHAR
STARTCHAR minus
ENCODING 8722
SWIDTH 428 0
DWIDTH 5 0
BBX 5 8 0 0
BITMAP
035200
8FFF40
EA7CA0
FEEFB0
FFFFB0
FFFFB0
DFFF90
4DEB10
ENDCHAR
STARTCHAR notequal
ENCODING 8800
SWIDTH 578 0
DWIDTH 6 0
BBX 7 8 0 0
BITMAP
03554000
8FFCEC10
EC639F50
FC449F60
FFBFFF60
FFFFFF60
DFFFFF40
4DFFE800
ENDCHAR
STARTCHAR uni2706
ENCODING 9990
SWIDTH 578 0
DWIDTH 6 0
BBX 7 8 0 0
BITMAP
03554000
8FF8DC10
EF97BF50
FD4FEF60
FF4DEF60
FFD49F60
DFFFFF40
4DFFE800
ENDCHAR
STARTCHAR uni2708
ENCODING 9992
SWIDTH 578 0
DWIDTH 6 0
BBX 7 8 0 0
BITMAP
02333000
41371410
33254030
309D4030
30070030
30030030
40280130
34463400
ENDCHAR
STARTCHAR uniF6D6
ENCODING 63190
SWIDTH 419 0
DWIDTH 5 0
BBX 5 4 0 0
BITMAP
5BC400
DAAE10
8CCB70
0BCC70
ENDCHAR
STARTCHAR uFFFF2
ENCODING 1048562
SWIDTH 578 0
DWIDTH 6 0
BBX 7 8 0 0
BITMAP
02333000
41040410
30080030
319C5030
32062030
30360030
40280130
34463400
ENDCHAR
STARTCHAR uFFFF3
ENCODING 1048563
SWIDTH 578 0
DWIDTH 6 0
BBX 7 8 0 0
BITMAP
02333000
41060410
30697030
303E1030
308A7030
300A2030
40000130
34333400
ENDCHAR
STARTCHAR uFFFF4
ENCODING 1048564
SWIDTH 578 0
DWIDTH 6 0
BBX 7 8 0 0
BITMAP
03554000
8FFDFC10
EEA99F50
FAEB9F60
FD9D8F60
FFDAEF60
DFFFFF40
4DFFE800
ENDCHAR
STARTCHAR uFFFF5
ENCODING 1048565
SWIDTH 578 0
DWIDTH 6 0
BBX 7 8 0 0
BITMAP
03554000
8FC8FC10
ECDABF50
FF62BF60
FFF8FF60
FFFCFF60
DFD7FF40
4DECE800
ENDCHAR
STARTCHAR uFFFF6
ENCODING 1048566
SWIDTH 578 0
DWIDTH 6 0
BBX 7 8 0 0
BITMAP
03554000
8FFBFC10
EFF7FF50
FE63AF60
FDF9DF60
FFC9FF60
DFD7FF40
4DECE800
ENDCHAR
STARTCHAR uFFFF8
ENCODING 1048568
SWIDTH 578 0
DWIDTH 6 0
BBX 7 8 0 0
BITMAP
03554000
8FDAFC10
EF75DF50
FD759F60
FB114F60
FF41AF60
DFD8FF40
4DECE800
ENDCHAR
STARTCHAR uFFFF9
ENCODING 1048569
SWIDTH 578 0
DWIDTH 6 0
BBX 7 8 0 0
BITMAP
02333000
41020410
31566030
35146030
32627030
30251030
40000130
34333400
ENDCHAR
STARTCHAR uFFFFB
ENCODING 1048571
SWIDTH 578 0
DWIDTH 6 0
BBX 7 8 0 0
BITMAP
03554000
8FF7FC10
EE74BF50
FF93FF60
FE83AF60
FFF7FF60
DFFFFF40
4DFFE800
ENDCHAR
STARTCHAR uFFFFC
ENCODING 1048572
SWIDTH 578 0
DWIDTH 6 0
BBX 7 8 0 0
BITMAP
03554000
8D879C10
E7787A50
FD889F60
FFE7FF60
FFFFFF60
DFFFFF40
4DFFE800
ENDCHAR
STARTCHAR uFFFFD
ENCODING 1048573
SWIDTH 578 0
DWIDTH 6 0
BBX 7 8 0 0
BITMAP
03554000
8FA8EC10
EC005F50
FC848F60
FF43BF60
FFB7FF60
DFD8FF40
4DECE800
ENDCHAR
STARTCHAR uFFFFE
ENCODING 1048574
SWIDTH 578 0
DWIDTH 6 0
BBX 7 8 0 0
BITMAP
03554000
8A9C9A10
E8A7F950
F777F960
F7798A60
FFFFFF60
DFFFFF40
4DFFE800
ENDCHAR
STARTCHAR uFFFFF
ENCODING 1048575
SWIDTH 578 0
DWIDTH 6 0
BBX 7 8 0 0
BITMAP
02333000
41571410
33FFA030
337B7030
30BC4030
30480030
40270130
34463400
ENDCHAR
STARTCHAR .notdef
ENCODING -1
SWIDTH 1000 0
DWIDTH 11 0
BBX 1 1 0 0
BITMAP
00
ENDCHAR
STARTCHAR glyph1
ENCODING -1
SWIDTH 0 0
DWIDTH 0 0
BBX 1 1 0 0
BITMAP
00
ENDCHAR
ENDFONT
